<?xml version="1.0" encoding="UTF-8"?>
<svg version="1.1" xmlns="http://www.w3.org/2000/svg" width="1024" height="1024">
<path d="M0 0 C337.92 0 675.84 0 1024 0 C1024 337.92 1024 675.84 1024 1024 C686.08 1024 348.16 1024 0 1024 C0 686.08 0 348.16 0 0 Z " fill="#FDFCFD" transform="translate(0,0)"/>
<path d="M0 0 C1.06375854 -0.0033284 2.12751709 -0.0066568 3.22351074 -0.01008606 C5.47598848 -0.01513429 7.72847364 -0.01749504 9.98095703 -0.01733398 C13.34030447 -0.01948895 16.69930569 -0.03757908 20.05859375 -0.05664062 C33.9514367 -0.09263642 47.63888104 0.57827115 61.46447754 1.93289185 C64.50747156 2.22585019 67.55390494 2.46423439 70.6015625 2.703125 C83.82464232 3.91221398 96.57570233 6.46692483 109.46875 9.54296875 C110.26114075 9.73174591 111.05353149 9.92052307 111.86993408 10.11502075 C125.93791275 13.49498017 139.99767451 17.18517924 153.59375 22.16796875 C155.0103537 22.67986179 156.42702134 23.1915779 157.84375 23.703125 C158.52566406 23.95078613 159.20757813 24.19844727 159.91015625 24.45361328 C161.79703214 25.12888222 163.69515488 25.77248216 165.59375 26.4140625 C172.69306367 28.83068155 179.2904433 31.71102499 185.94921875 35.15625 C189.7729967 37.1270959 193.66105215 38.94717325 197.55810547 40.76782227 C220.81293753 51.65718822 242.8196304 64.91042148 263.07128906 80.734375 C264.92265996 82.18078931 266.78458691 83.61268508 268.6484375 85.04296875 C274.78613945 89.77891036 280.73042812 94.63830054 286.4296875 99.90234375 C287.78637535 101.14347775 289.15096958 102.37684024 290.54956055 103.57055664 C296.43894109 108.60415677 301.91586539 114.02526875 307.37915039 119.51049805 C308.96584946 121.10255841 310.55782742 122.68919865 312.15039062 124.27539062 C320.67493259 132.79386571 328.47305942 141.68381422 335.90625 151.16796875 C336.35709961 151.73563965 336.80794922 152.30331055 337.27246094 152.88818359 C350.43851873 169.49666248 362.76568553 187.05447265 372.66601562 205.82421875 C373.5877698 207.56611641 374.52050357 209.30221308 375.45898438 211.03515625 C398.62718467 253.83160377 413.12428168 299.76514776 419.59375 347.98046875 C419.71322998 348.86234863 419.83270996 349.74422852 419.95581055 350.65283203 C421.80009054 365.20141007 422.0927871 379.7481124 422.09155273 394.39257812 C422.09373137 397.26838172 422.11194652 400.14379534 422.13085938 403.01953125 C422.19176355 422.42973364 420.32440806 441.51116367 417.28125 460.66796875 C417.15541534 461.4697052 417.02958069 462.27144165 416.89993286 463.09747314 C414.35224987 479.13533994 410.56584175 494.60772605 405.90625 510.16796875 C405.64392578 511.04678711 405.38160156 511.92560547 405.11132812 512.83105469 C404.08176944 516.24757123 403.0189373 519.64862054 401.91796875 523.04296875 C401.01844154 525.82143117 400.2008755 528.60824324 399.40625 531.41796875 C398.35016913 534.95603744 397.06192013 538.32412629 395.62890625 541.7265625 C395.18369629 542.78375488 394.73848633 543.84094727 394.27978516 544.93017578 C393.59988525 546.5328833 393.59988525 546.5328833 392.90625 548.16796875 C392.49552246 549.13976074 392.08479492 550.11155273 391.66162109 551.11279297 C376.48071902 586.80451223 357.94394554 620.89460827 332.3984375 650.27734375 C330.10094174 652.94215074 327.90528788 655.66210592 325.71875 658.41796875 C315.7822973 670.59813657 304.69012263 681.78364698 292.90625 692.16796875 C292.13023437 692.87050781 291.35421875 693.57304688 290.5546875 694.296875 C230.43763199 748.57216716 155.21634391 780.18428778 75.90625 793.16796875 C74.80925781 793.35053223 73.71226562 793.5330957 72.58203125 793.72119141 C54.83562359 796.48577131 36.99002033 796.32850894 19.07421875 796.29833984 C15.28120954 796.29296869 11.48831819 796.29832175 7.6953125 796.3046875 C-9.94984672 796.31155107 -27.00997404 795.78058447 -44.46875 792.98046875 C-45.15251709 792.87192566 -45.83628418 792.76338257 -46.54077148 792.65155029 C-102.88680071 783.6516113 -157.37463993 763.59303508 -205.09375 732.16796875 C-206.15335938 731.48347656 -207.21296875 730.79898438 -208.3046875 730.09375 C-222.04464553 721.11572263 -235.1755056 711.47222476 -247.4609375 700.59033203 C-249.51013379 698.80525165 -251.62247038 697.10018028 -253.72680664 695.38085938 C-261.73099883 688.75803389 -269.0513188 681.42923717 -276.40625 674.10546875 C-276.96614624 673.5507489 -277.52604248 672.99602905 -278.10290527 672.42449951 C-285.24067962 665.33877416 -291.84489181 658.06546187 -298.09375 650.16796875 C-299.04602276 649.02855819 -300.00236098 647.89251791 -300.96484375 646.76171875 C-315.67935588 629.1687102 -328.06830488 609.23603113 -339.09375 589.16796875 C-339.47257324 588.4925 -339.85139648 587.81703125 -340.24169922 587.12109375 C-355.82673335 559.30655813 -367.08339158 528.9799688 -375.09375 498.16796875 C-375.4038501 497.0078125 -375.7139502 495.84765625 -376.03344727 494.65234375 C-378.72434719 484.41011248 -380.60492158 474.11871007 -382.28125 463.66796875 C-382.54304482 462.0741242 -382.80541283 460.4803737 -383.06835938 458.88671875 C-383.32082116 457.3451353 -383.57279246 455.80347142 -383.82421875 454.26171875 C-383.93775192 453.56574585 -384.0512851 452.86977295 -384.16825867 452.15270996 C-395.99633349 378.35023715 -382.15634444 298.23311645 -350.09375 231.16796875 C-349.31596191 229.53408203 -349.31596191 229.53408203 -348.52246094 227.8671875 C-336.27437054 202.32516857 -321.57045061 178.48481696 -304.09375 156.16796875 C-303.39113037 155.27029785 -303.39113037 155.27029785 -302.67431641 154.35449219 C-291.41991118 140.05029761 -279.05213371 127.05844445 -266.21875 114.16796875 C-265.33896484 113.28343018 -264.45917969 112.3988916 -263.55273438 111.48754883 C-258.56033978 106.50792856 -253.47567282 101.72327429 -248.09375 97.16796875 C-247.4534082 96.62092285 -246.81306641 96.07387695 -246.15332031 95.51025391 C-235.87037125 86.77563342 -225.23954282 78.76272275 -214.09375 71.16796875 C-212.84888557 70.30739692 -211.60409158 69.44672317 -210.359375 68.5859375 C-183.46641011 50.15513846 -153.36554769 33.95455894 -122.2109375 24.171875 C-119.53072983 23.30870035 -116.9924989 22.33566508 -114.40625 21.23046875 C-85.25727607 9.351427 -53.17450386 4.88532826 -22.10302734 1.50927734 C-19.8715848 1.25618983 -17.64506903 0.95882615 -15.42236328 0.63793945 C-10.28776693 -0.00514467 -5.16844676 0.00575742 0 0 Z " fill="#3353E5" transform="translate(498.09375,75.83203125)"/>
<path d="M0 0 C19.47 0 38.94 0 59 0 C59.04416599 29.41047287 59.08106535 58.82092634 59.10213066 88.23142371 C59.1046318 91.71076039 59.10722047 95.19009701 59.10986328 98.66943359 C59.1103879 99.36204987 59.11091252 100.05466614 59.11145304 100.76827079 C59.12013414 111.95426331 59.13589135 123.14023508 59.15430559 134.32621533 C59.17306873 145.82077857 59.18398072 157.31532727 59.18817699 168.80990553 C59.19077653 175.25918071 59.19685501 181.70840897 59.21146011 188.15766907 C59.22511721 194.23804364 59.22920631 200.31835232 59.22621536 206.39874077 C59.22676191 208.62057797 59.2306906 210.84241756 59.23841095 213.06424141 C59.35636149 248.78571782 50.6194205 278.16660426 25 304 C24.11183594 304.90105469 23.22367188 305.80210937 22.30859375 306.73046875 C11.22764225 317.38205402 -1.67549725 323.84849669 -16 329 C-16.84304688 329.31710937 -17.68609375 329.63421875 -18.5546875 329.9609375 C-38.39814427 337.09328317 -63.05685098 336.42601712 -83 330 C-84.01658691 329.67854004 -84.01658691 329.67854004 -85.05371094 329.35058594 C-104.78417612 322.9356169 -120.92074648 312.20434802 -136 298 C-136.65226563 297.4121875 -137.30453125 296.824375 -137.9765625 296.21875 C-155.24385989 280.01733517 -168.70637586 256.2928334 -174.1875 233.375 C-174.56865967 231.79489136 -174.56865967 231.79489136 -174.95751953 230.18286133 C-182.97935591 195.90845489 -181.19071371 159.77710891 -163 129 C-154.34829143 115.36582085 -144.80527702 103.91032535 -132 94 C-131.20464844 93.34257812 -130.40929687 92.68515625 -129.58984375 92.0078125 C-115.53915135 80.9186765 -98.37450336 74.57037975 -81 71 C-79.60974609 70.70222656 -79.60974609 70.70222656 -78.19140625 70.3984375 C-50.44022991 66.93378635 -24.65110092 73.67444954 0 86 C0 57.62 0 29.24 0 0 Z " fill="#FBFCFD" transform="translate(681,212)"/>
<path d="M0 0 C19.47 0 38.94 0 59 0 C59 76.89 59 153.78 59 233 C57.35 231.35 55.7 229.7 54 228 C53.41476562 227.42636719 52.82953125 226.85273438 52.2265625 226.26171875 C47.42776923 221.54485609 43.03504238 216.55292218 38.66650391 211.43896484 C37.15307 209.66730033 35.63913529 207.89606512 34.125 206.125 C33.60550781 205.51672363 33.08601562 204.90844727 32.55078125 204.28173828 C29.52152659 200.74413682 26.44871166 197.25629109 23.3125 193.8125 C19.46148995 189.57291957 15.85156045 185.17067888 12.25 180.71875 C9.35573105 177.22150835 6.30788399 173.88196332 3.2421875 170.53515625 C0.92328774 167.91326436 -1.219747 165.19484325 -3.375 162.4375 C-14.56066559 148.69289531 -30.39841617 138.76480574 -48 136 C-69.62065571 133.83793443 -86.71000633 138.32802044 -103.55859375 152.08984375 C-114.52565445 162.29662294 -123.19606222 176.82186913 -124.19287109 191.92163086 C-124.81242578 215.32390117 -121.57394178 232.85650597 -105.3125 250.375 C-92.39869749 262.54801074 -75.52471207 268.45881276 -57.9140625 268.2734375 C-42.95891066 267.22866641 -26.09385497 261.49048899 -16 250 C-5.07840949 236.33391342 1.04379449 221.55724969 1.625 204 C1.68300781 202.55173828 1.68300781 202.55173828 1.7421875 201.07421875 C1.83556941 198.7163256 1.92134329 196.35842244 2 194 C4 194 4 194 5.375 195.36328125 C5.91125 196.00652344 6.4475 196.64976562 7 197.3125 C9.88858397 200.71647448 12.84793678 204.03082398 15.875 207.3125 C19.9958725 211.82554013 23.87282517 216.4847181 27.7109375 221.23828125 C30.89983624 225.0856386 34.26790329 228.75477711 37.6484375 232.43359375 C40.27932967 235.30484982 42.86222197 238.21003145 45.390625 241.171875 C46.98788797 243.0306328 46.98788797 243.0306328 48.796875 244.765625 C49.63992188 245.62414062 49.63992188 245.62414062 50.5 246.5 C51.25796875 247.22703125 51.25796875 247.22703125 52.03125 247.96875 C53.63207091 251.32530997 52.86024349 254.52414057 52 258 C51.01387687 260.699858 49.77711843 263.20948568 48.4375 265.75 C48.08034912 266.44174316 47.72319824 267.13348633 47.35522461 267.84619141 C41.82398379 278.35542764 35.21658811 287.4349106 27 296 C26.17886719 296.89589844 25.35773438 297.79179687 24.51171875 298.71484375 C11.02541431 312.96037719 -6.45890641 322.65018608 -25.125 328.375 C-25.89932373 328.61379883 -26.67364746 328.85259766 -27.47143555 329.09863281 C-57.62754182 337.76212702 -92.38862343 334.91671332 -120.03515625 319.86328125 C-151.88368827 301.69957152 -175.897244 273.52740393 -186 238 C-187.17439072 233.35836047 -188.14549596 228.71045353 -189 224 C-189.20625 222.90429688 -189.4125 221.80859375 -189.625 220.6796875 C-195.13455138 187.69890076 -187.17023242 152.77103208 -168.66357422 124.99414062 C-165.94464937 121.18704409 -163.01270801 117.57955899 -160 114 C-159.44570313 113.30648437 -158.89140625 112.61296875 -158.3203125 111.8984375 C-154.65561963 107.40176031 -150.48108768 103.66902895 -146 100 C-145.06285156 99.22527344 -144.12570312 98.45054687 -143.16015625 97.65234375 C-124.95910109 82.94264982 -104.77890038 74.70929446 -82 70 C-80.5459375 69.690625 -80.5459375 69.690625 -79.0625 69.375 C-52.18582504 66.08397858 -25.51151998 71.98635816 -2 85 C-1.34 85.33 -0.68 85.66 0 86 C0 57.62 0 29.24 0 0 Z " fill="#FCFCFD" transform="translate(426,213)"/>
<path d="M0 0 C3.93930602 1.63463871 6.97685005 4.13790477 10.2890625 6.79296875 C11.81387656 7.98724611 13.33996464 9.17989827 14.8671875 10.37109375 C16.05151367 11.29825195 16.05151367 11.29825195 17.25976562 12.24414062 C21.13623656 15.24517783 25.08493025 18.14545599 29.0390625 21.04296875 C29.82144287 21.61748779 30.60382324 22.19200684 31.40991211 22.78393555 C33.00906547 23.95786728 34.60859607 25.13128529 36.20849609 26.30419922 C40.42715547 29.39877755 44.63921411 32.50230862 48.8515625 35.60546875 C49.61710449 36.1687085 50.38264648 36.73194824 51.17138672 37.31225586 C51.90502441 37.85245361 52.63866211 38.39265137 53.39453125 38.94921875 C54.02770264 39.41521484 54.66087402 39.88121094 55.31323242 40.36132812 C56.08900635 40.93689453 56.86478027 41.51246094 57.6640625 42.10546875 C58.32766281 42.43040817 58.99126312 42.7553476 59.67497253 43.09013367 C62.24610294 44.54328945 63.84212583 45.76378953 65.6640625 48.10546875 C66.87912753 53.28081471 66.76726311 58.40726096 66.69140625 63.6875 C66.69425946 65.22678781 66.69963635 66.76607281 66.70741272 68.30534363 C66.71468155 71.52789525 66.69364847 74.74866529 66.65209961 77.97094727 C66.60104417 82.08065655 66.61672915 86.1868066 66.65347958 90.29655933 C66.67500662 93.47547918 66.6624238 96.65357973 66.63971138 99.83246422 C66.63257709 101.34615403 66.63537403 102.8599272 66.64869499 104.37357521 C66.70079416 112.74990236 66.35230772 119.02374829 60.41163635 125.42654419 C59.83493698 125.98058929 59.25823761 126.5346344 58.6640625 127.10546875 C57.8184375 128.02457031 56.9728125 128.94367188 56.1015625 129.890625 C40.861463 144.12937181 20.70702467 151.942668 -0.19140625 151.32421875 C-22.76219434 149.75407697 -39.53020678 139.90767189 -54.6953125 123.5625 C-67.20293088 108.77435722 -67.86370827 91.32546355 -68.31079102 72.76416016 C-68.36937254 70.90358472 -68.45842628 69.04372722 -68.57739258 67.18603516 C-69.51754856 52.2145443 -69.51754856 52.2145443 -65.95581055 47.13861084 C-62.47136452 43.52769913 -58.46157751 40.82135817 -54.18417358 38.23260498 C-51.8045202 36.78138694 -49.60838608 35.1270889 -47.390625 33.44140625 C-45.99996512 32.45081022 -44.60679182 31.46373174 -43.2109375 30.48046875 C-37.92949571 26.7145368 -32.70127242 22.90694779 -27.5859375 18.91796875 C-22.51407313 14.9724702 -17.34575294 11.19882944 -12.09082031 7.50317383 C-9.51032849 5.68385883 -7.08462318 3.87762053 -4.7421875 1.75390625 C-2.3359375 0.10546875 -2.3359375 0.10546875 0 0 Z " fill="#3657E8" transform="translate(630.3359375,330.89453125)"/>
<path d="M0 0 C97.68 0 195.36 0 296 0 C296 2.31 296 4.62 296 7 C293.36 7 290.72 7 288 7 C288 21.52 288 36.04 288 51 C286.35 51 284.7 51 283 51 C281.33203125 49.2421875 281.33203125 49.2421875 279.8125 46.875 C274.34058314 39.33038736 266.78736359 35.97326863 258.12890625 33.0546875 C255.54047772 31.77234676 254.49382541 30.44950253 253 28 C252.3125 25.125 252.3125 25.125 253 22 C257.84088643 16.82614254 265.46922771 12.42691168 272.5703125 11.7578125 C274.71505101 11.75108918 276.85956093 11.86409911 279 12 C279 10.68 279 9.36 279 8 C268.77 8 258.54 8 248 8 C248 22.19 248 36.38 248 51 C245.03 51 242.06 51 239 51 C239 36.48 239 21.96 239 7 C229.1 7 219.2 7 209 7 C209.33 12.28 209.66 17.56 210 23 C211.670625 21.845 213.34125 20.69 215.0625 19.5 C219.56117044 16.65295953 222.56437793 14.80416314 228 16 C230.9375 18 230.9375 18 233 20 C232.50284892 22.58518563 231.85141992 24.23772814 230.4375 26.5 C227.11071687 34.59999371 228.95025565 43.72781745 231 52 C226.11234467 50.64231796 224.47408902 48.32965579 222 44 C220.84429296 40.53287889 220.67164707 37.4585044 220.4375 33.8125 C220.35371094 32.54019531 220.26992188 31.26789062 220.18359375 29.95703125 C220.12300781 28.98121094 220.06242188 28.00539063 220 27 C215.94107754 29.90511709 212.12544598 32.7418194 208.75 36.4375 C207.38875 37.7059375 207.38875 37.7059375 206 39 C203.03873707 38.68918042 202.14389427 38.14389427 200 36 C199.77294922 33.11083984 199.77294922 33.11083984 199.8046875 29.4609375 C199.81435547 27.50800781 199.81435547 27.50800781 199.82421875 25.515625 C199.84093071 24.13541405 199.85786061 22.75520571 199.875 21.375 C199.88502994 19.98698548 199.89415577 18.59896411 199.90234375 17.2109375 C199.92598137 13.80711974 199.95893133 10.40364494 200 7 C196.7 7 193.4 7 190 7 C190 21.52 190 36.04 190 51 C187.69 51 185.38 51 183 51 C180.10453255 48.10453255 180.79778202 45.84609889 180.75 41.8125 C180.53509602 36.06944687 179.81239241 32.2566402 175.66796875 28.1015625 C173.79934177 26.86748098 172.18974784 26.4084996 170 26 C170.0309375 27.4540625 170.0309375 27.4540625 170.0625 28.9375 C170 32 170 32 169 33 C166.25 33.375 166.25 33.375 163 33 C159.55015552 30.09899442 156.38315694 27.1347315 155.5625 22.5625 C156 20 156 20 157.8125 17.6875 C163.14215765 14.86591654 168.7969672 15.27642331 174.59375 16.5859375 C177 18 177 18 181 25 C181 19.39 181 13.78 181 8 C166.15 7.505 166.15 7.505 151 7 C151 21.52 151 36.04 151 51 C148.03 51 145.06 51 142 51 C142 36.48 142 21.96 142 7 C121.21 7 100.42 7 79 7 C79 21.52 79 36.04 79 51 C76.36 51 73.72 51 71 51 C71 36.48 71 21.96 71 7 C59.78 7 48.56 7 37 7 C37 12.61 37 18.22 37 24 C41.01798622 21.38220673 41.01798622 21.38220673 45.01611328 18.734375 C48.83893934 16.31313173 51.50364086 15.38686012 56 16 C58.875 18 58.875 18 61 20 C60.23518851 24.58886894 60.23518851 24.58886894 58.9765625 26.7890625 C55.70475219 34.19644105 58.08364251 44.42012173 60 52 C56.15977263 51.31366149 54.64328998 49.78487323 52.1484375 46.765625 C49.22110605 42.26510182 48.76746362 38.51055094 48.875 33.1875 C48.89304687 32.02605469 48.91109375 30.86460937 48.9296875 29.66796875 C48.95289063 28.78753906 48.97609375 27.90710938 49 27 C42.66944533 30.91023299 42.66944533 30.91023299 37.25 35.9375 C36.13625 36.9584375 36.13625 36.9584375 35 38 C30.80952381 37.80952381 30.80952381 37.80952381 29 36 C28.91224395 33.85441173 28.89304781 31.70595579 28.90234375 29.55859375 C28.90556641 28.25341797 28.90878906 26.94824219 28.91210938 25.60351562 C28.92046599 24.2148431 28.92893095 22.82617123 28.9375 21.4375 C28.94251334 20.04492344 28.94707653 18.65234519 28.95117188 17.25976562 C28.96300566 13.8398013 28.9794912 10.41992156 29 7 C22.65825765 7.62496424 18.54861674 8.28975728 14 13 C9.71860711 19.53885459 8.1960842 26.24221257 9 34 C10.34746524 37.45346148 10.34746524 37.45346148 12 40 C14.54200817 40 17.08450178 39.96260339 19.625 39.875 C23 40 23 40 25 42 C25.33407812 45.00670307 25.55548708 47.10437588 25 50 C22.7199757 52.42712264 21.14673701 52.95437936 17.83984375 53.0859375 C14.19672423 52.8548214 11.49840523 52.26053 8.25 50.5625 C2.04332975 43.49379221 -0.35611298 35.44155409 -0.2890625 26.2109375 C0.31368301 19.5155752 3.30038204 13.54942694 7 8 C4.69 7.67 2.38 7.34 0 7 C0 4.69 0 2.38 0 0 Z " fill="#F7F8FD" transform="translate(479,704)"/>
<path d="M0 0 C62.37 0 124.74 0 189 0 C189 2.31 189 4.62 189 7 C186.36 7 183.72 7 181 7 C181 21.19 181 35.38 181 50 C178.525 50.495 178.525 50.495 176 51 C173.74609375 48.90234375 173.74609375 48.90234375 171.4375 45.9375 C165.96167187 39.33592789 159.69548462 36.23857309 151.75390625 33.1171875 C147.27993921 31.34992401 147.27993921 31.34992401 145.5 29.125 C144.79167191 26.11460564 144.75822116 24.89748397 146 22 C151.91834448 16.18680377 159.67441905 11.77629492 168.0625 11.75 C169.361875 11.8325 170.66125 11.915 172 12 C172 10.35 172 8.7 172 7 C167.55185026 7.04432102 163.10504649 7.11432636 158.65771484 7.20751953 C157.14676062 7.23563782 155.63566179 7.25689771 154.12451172 7.27099609 C151.94423897 7.29255449 149.76568781 7.33926316 147.5859375 7.390625 C146.2767334 7.41157227 144.9675293 7.43251953 143.61865234 7.45410156 C138.38840139 8.24312067 135.33132271 10.59471492 131.75 14.375 C127.48338554 20.77492169 127.31303444 27.49389101 128 35 C128.9329666 37.7789206 128.9329666 37.7789206 130 40 C130.75925781 39.95359375 131.51851562 39.9071875 132.30078125 39.859375 C133.29464844 39.82328125 134.28851563 39.7871875 135.3125 39.75 C136.29863281 39.70359375 137.28476562 39.6571875 138.30078125 39.609375 C141 40 141 40 142.859375 41.82421875 C144 44 144 44 143.9375 47.0625 C143 50 143 50 141.375 51.875 C137.99910209 53.47410954 135.70032564 53.44659103 132 53 C126.28483513 50.02811427 122.02286644 45.9398469 119.8828125 39.7890625 C117.56991765 29.86203594 117.73677703 18.95132081 123 10 C123.66 9.34 124.32 8.68 125 8 C120.05 7.67 115.1 7.34 110 7 C110 21.52 110 36.04 110 51 C107.03 51 104.06 51 101 51 C101 36.48 101 21.96 101 7 C96.71 7 92.42 7 88 7 C88 21.52 88 36.04 88 51 C86.02 51 84.04 51 82 51 C80.0859375 49.0234375 80.0859375 49.0234375 78.375 46.375 C73.88538555 40.29728102 68.86285868 37.85502126 62 35 C60.3109785 34.27436466 58.62330458 33.54557789 56.9375 32.8125 C56.24527344 32.53019531 55.55304688 32.24789062 54.83984375 31.95703125 C52.7798302 30.88547431 51.48130073 29.7838835 50 28 C49.5625 25.5 49.5625 25.5 50 23 C52.81522017 20.07650214 56.16900109 19.13188604 60 18 C59.505 12.555 59.505 12.555 59 7 C44.81 7 30.62 7 16 7 C16.495 15.415 16.495 15.415 17 24 C19.000625 22.845 21.00125 21.69 23.0625 20.5 C27.97691643 17.66281113 31.29513094 16.40960441 37 17 C39.75329021 18.79562405 41.52627461 20.05254922 43 23 C43.57980998 32.44421258 43.20587589 40.99301535 40 50 C40.58523438 50.26941406 41.17046875 50.53882813 41.7734375 50.81640625 C44.00117569 52.00062497 45.721441 53.28970553 47.625 54.9375 C48.21539062 55.44152344 48.80578125 55.94554687 49.4140625 56.46484375 C51 58 51 58 53 61 C52.625 63.1875 52.625 63.1875 52 65 C48.76108816 63.95211676 46.42363434 62.6420687 43.875 60.4375 C41.19395804 57.85782237 41.19395804 57.85782237 38 57 C37.731875 57.61875 37.46375 58.2375 37.1875 58.875 C36 61 36 61 33 63 C29.9324985 63.53667153 27.06936115 63.52633449 24 63 C21.27753057 60.87514581 20.26878019 59.42877889 19.62890625 56.02734375 C19.42190828 52.6714676 19.7694985 50.38416916 21.5 47.5 C24 46 24 46 32 46 C32.66 39.07 33.32 32.14 34 25 C25.78087237 28.61522602 25.78087237 28.61522602 19.125 33.6875 C14.27586207 37.90804598 14.27586207 37.90804598 11 39 C8.83691406 37.97729492 8.83691406 37.97729492 7 36 C6.54589844 32.99731445 6.54589844 32.99731445 6.609375 29.36328125 C6.62226563 28.06455078 6.63515625 26.76582031 6.6484375 25.42773438 C6.68185899 24.05597897 6.71571877 22.68423419 6.75 21.3125 C6.77006624 19.92906188 6.78831681 18.54559616 6.8046875 17.16210938 C6.85190793 13.77404351 6.91775931 10.38736759 7 7 C4.69 7 2.38 7 0 7 C0 4.69 0 2.38 0 0 Z " fill="#F5F7FD" transform="translate(270,704)"/>
<path d="M0 0 C0.54011719 0.70511719 1.08023438 1.41023438 1.63671875 2.13671875 C4.18680146 5.22632309 6.95060396 8.01863707 9.8125 10.8125 C13.73582655 14.68926063 17.51010348 18.61189966 21.09765625 22.8046875 C27.9231068 30.68128547 34.87845516 38.43110344 43 45 C42.51267899 45.41303879 42.02535797 45.82607758 41.52326965 46.25163269 C38.90061959 49.26183881 39.59589618 53.17941753 39.63671875 56.98828125 C39.63622025 57.88306686 39.63572174 58.77785248 39.63520813 59.69975281 C39.63755094 61.6003948 39.64729165 63.50103975 39.66381836 65.40161133 C39.68710118 68.2634782 39.6844194 71.12439259 39.67773438 73.98632812 C39.69834429 87.87862461 39.92996369 101.21167108 46 114 C42.68110468 112.89370156 41.9804266 112.0827837 39.8046875 109.4609375 C36.05282379 105.03944982 32.11743385 100.82895352 28.125 96.625 C22.32653529 90.49174022 16.60826892 84.307936 11 78 C9.50101911 76.33241669 8.00099544 74.66577024 6.5 73 C-2.5 63 -2.5 63 -4.7265625 60.5234375 C-6.3012727 58.77556329 -7.8796501 57.03098862 -9.4609375 55.2890625 C-10.25757813 54.40992188 -11.05421875 53.53078125 -11.875 52.625 C-12.59429687 51.83351563 -13.31359375 51.04203125 -14.0546875 50.2265625 C-14.69664062 49.49179687 -15.33859375 48.75703125 -16 48 C-16.60070312 47.40960938 -17.20140625 46.81921875 -17.8203125 46.2109375 C-20.18188582 41.78494247 -18.24328882 36.827182 -16.90625 32.28125 C-16.45061886 31.01603184 -15.98133767 29.75566348 -15.5 28.5 C-15.24371826 27.82291992 -14.98743652 27.14583984 -14.72338867 26.44824219 C-11.07085634 17.19274445 -6.2063828 7.8023098 0 0 Z " fill="#A2C1FA" transform="translate(524,332)"/>
<path d="M0 0 C32.57983193 0 32.57983193 0 41 6 C47.67837978 12.88830921 50.38208505 19.24645553 50.25 28.875 C50.23984863 29.93944336 50.23984863 29.93944336 50.22949219 31.02539062 C50.04375397 40.41596952 47.70082144 48.34753876 41.8125 55.75 C29.47275383 65.62179693 15.7016104 63 0 63 C0 42.21 0 21.42 0 0 Z " fill="#FAFBFD" transform="translate(222,603)"/>
<path d="M0 0 C33.82389937 0 33.82389937 0 41.91796875 7.86328125 C49.20869439 15.8454984 50.28888699 23.29344803 50.14453125 33.91015625 C49.73446415 42.67672587 47.81149856 49.24982709 42 56 C29.5713357 65.8922022 15.83111074 63 0 63 C0 42.21 0 21.42 0 0 Z " fill="#F8FAFD" transform="translate(464,603)"/>
<path d="M0 0 C3.63 0 7.26 0 11 0 C11 20.79 11 41.58 11 63 C8.03 63 5.06 63 2 63 C1.67 61.68 1.34 60.36 1 59 C0.19949219 59.54140625 0.19949219 59.54140625 -0.6171875 60.09375 C-6.41743029 63.70635797 -11.17133746 65.25638084 -18 64 C-23.48337587 61.25831206 -26.89462162 57.65290812 -29.25 52 C-31.23936601 43.79162493 -31.31390295 33.4704173 -27 26 C-23.616148 22.21616549 -20.2321732 19.33150494 -15.01953125 18.796875 C-13.92705078 18.77367187 -13.92705078 18.77367187 -12.8125 18.75 C-12.09707031 18.72421875 -11.38164063 18.6984375 -10.64453125 18.671875 C-8 19 -8 19 0 22 C0 14.74 0 7.48 0 0 Z " fill="#F7F8FD" transform="translate(727,603)"/>
<path d="M0 0 C4.84514979 3.12915924 8.93442045 7.47644721 11 12.9375 C11.79718453 21.50259891 12.15827936 29.68802631 7 36.9375 C4.5 39.3125 4.5 39.3125 2 40.9375 C1.45859375 41.29070313 0.9171875 41.64390625 0.359375 42.0078125 C-5.93105829 44.48649317 -15.46237746 44.28516573 -21.7890625 41.875 C-26.63952612 38.53235841 -28.50411338 34.53691756 -30 28.9375 C-30.43180522 25.92353961 -30.52549655 22.97965844 -30.5 19.9375 C-30.49427979 19.14585449 -30.48855957 18.35420898 -30.48266602 17.53857422 C-30.32619778 12.44835167 -29.87389546 8.40543152 -26.5234375 4.3515625 C-19.35073914 -2.3061729 -9.29651392 -3.32018354 0 0 Z " fill="#F7F9FD" transform="translate(549,623.0625)"/>
<path d="M0 0 C4.03592338 2.66462402 6.04232427 5.89456279 7.375 10.5 C7.85350314 16.01200229 7.75356793 21.47400502 7.625 27 C7.60490494 28.50518458 7.58665948 30.01039505 7.5703125 31.515625 C7.52655298 35.17762737 7.45769216 38.83864578 7.375 42.5 C4.075 42.5 0.775 42.5 -2.625 42.5 C-3.285 41.18 -3.945 39.86 -4.625 38.5 C-5.3675 39.139375 -6.11 39.77875 -6.875 40.4375 C-11.36820743 43.80740557 -15.03923356 43.87869603 -20.625 43.5 C-24.78194255 42.25291724 -26.96930829 41.38835651 -29.5625 37.875 C-30.91095869 33.59166062 -31.46082051 29.94178897 -30.625 25.5 C-27.5066305 20.39721354 -24.23891145 18.37130382 -18.625 16.5 C-13.91580355 15.39784764 -9.43392116 15.41708757 -4.625 15.5 C-5.285 13.52 -5.945 11.54 -6.625 9.5 C-12.73590483 9.40054585 -18.59903427 9.4287172 -24.625 10.5 C-26.1875 7.6875 -26.1875 7.6875 -27.625 4.5 C-26.625 1.5 -26.625 1.5 -23.4375 -0.1875 C-16.19436847 -2.64102924 -7.12083999 -3.00035393 0 0 Z " fill="#F5F6FC" transform="translate(774.625,623.5)"/>
<path d="M0 0 C4.56873368 4.92942318 5.14357996 8.10734438 5.09765625 14.6328125 C5.0962413 15.38464813 5.09482635 16.13648376 5.09336853 16.91110229 C5.08776465 19.3157751 5.07521157 21.72035527 5.0625 24.125 C5.0574855 25.75390491 5.0529225 27.38281127 5.04882812 29.01171875 C5.03779397 33.00784827 5.02052679 37.00390842 5 41 C2.03 41 -0.94 41 -4 41 C-4.66 39.68 -5.32 38.36 -6 37 C-6.53625 37.45375 -7.0725 37.9075 -7.625 38.375 C-12.48837029 41.70256915 -17.17320473 42.52024958 -23 42 C-27.20809896 40.3815004 -29.67854826 38.86241539 -32 35 C-32.8990207 29.55343291 -33.05954396 24.62242669 -30 19.9375 C-24.21754944 16.20300068 -17.68253951 13.82195767 -10.75 13.9375 C-8.89375 13.9684375 -8.89375 13.9684375 -7 14 C-7.66 12.02 -8.32 10.04 -9 8 C-11.08326131 7.97290556 -13.16662441 7.95356127 -15.25 7.9375 C-16.41015625 7.92589844 -17.5703125 7.91429687 -18.765625 7.90234375 C-21.40977128 7.98217908 -23.49826091 8.21356222 -26 9 C-28.0625 6.75 -28.0625 6.75 -30 4 C-29.8203125 1.9375 -29.8203125 1.9375 -29 0 C-20.53408832 -4.64795151 -8.30855166 -5.23799996 0 0 Z " fill="#F6F8FD" transform="translate(639,625)"/>
<path d="M0 0 C3.63 0 7.26 0 11 0 C11.33 11.88 11.66 23.76 12 36 C14.97 32.37 17.94 28.74 21 25 C25 21 25 21 28.234375 20.609375 C29.39453125 20.65578125 30.5546875 20.7021875 31.75 20.75 C32.92046875 20.78609375 34.0909375 20.8221875 35.296875 20.859375 C36.18890625 20.90578125 37.0809375 20.9521875 38 21 C34.35933922 26.01424341 30.59031583 30.63821652 26.22265625 35.04296875 C24.81052744 36.92743696 24.81052744 36.92743696 24.96875 39.20703125 C26.50885827 43.3781578 28.94742414 46.83607643 31.4375 50.5 C37.5103583 59.50431487 37.5103583 59.50431487 39 64 C34.44256005 64.81283609 30.52000555 65.12352944 26 64 C23.13375089 60.84757313 21.5841093 58.04387165 19.68359375 54.234375 C18.08829583 51.16962633 16.56683491 49.26914946 14 47 C13.01 47.495 13.01 47.495 12 48 C11.68758545 50.71446979 11.48663408 53.33909361 11.375 56.0625 C11.31699219 57.20041992 11.31699219 57.20041992 11.2578125 58.36132812 C11.16326438 60.24047195 11.08053244 62.12020336 11 64 C7.37 64 3.74 64 0 64 C0 42.88 0 21.76 0 0 Z " fill="#F6F7FD" transform="translate(567,602)"/>
<path d="M0 0 C6.77307703 6.77307703 7 13.49648468 7 23 C-2.24 23 -11.48 23 -21 23 C-18.5797509 28.63106761 -18.5797509 28.63106761 -16 31 C-10.11272745 31.65414139 -4.48005169 31.36975208 1 29 C5 35.75 5 35.75 5 38 C-2.98456783 41.60088353 -11.01265167 43.85694571 -19.6953125 41.1640625 C-25.8535479 38.42502646 -29.30241428 35.18408802 -32 29 C-34.3204325 22.21719731 -33.65338776 13.76636272 -31.18359375 7.11328125 C-28.78200381 2.82529392 -24.79089355 -1.00614143 -20.11328125 -2.671875 C-13.24345097 -3.73853996 -5.82273636 -4.22148386 0 0 Z " fill="#F5F6FC" transform="translate(430,625)"/>
<path d="M0 0 C4.29917022 3.81062815 5.59418888 7.68805946 6.09057617 13.26147461 C6.09010952 14.62102353 6.07366077 15.98064123 6.04296875 17.33984375 C6.03872391 18.0624086 6.03447906 18.78497345 6.03010559 19.5294342 C6.01346418 21.81168693 5.97584248 24.09301933 5.9375 26.375 C5.92243423 27.93292985 5.90874916 29.4908737 5.89648438 31.04882812 C5.86360882 34.84540057 5.8119309 38.64129487 5.75 42.4375 C2.45 42.4375 -0.85 42.4375 -4.25 42.4375 C-4.25 40.7875 -4.25 39.1375 -4.25 37.4375 C-4.91 37.4375 -5.57 37.4375 -6.25 37.4375 C-6.58 38.4275 -6.91 39.4175 -7.25 40.4375 C-12.46280077 43.36970044 -17.29504597 44.42277421 -23.25 43.4375 C-27.34108165 41.35476752 -29.56077324 39.67967581 -31.25 35.4375 C-31.89999695 30.78926602 -31.94016426 26.76031484 -29.75 22.5625 C-22.51393794 16.41184725 -15.60580382 15.72273792 -6.25 15.4375 C-6.91 13.4575 -7.57 11.4775 -8.25 9.4375 C-10.33326131 9.41040556 -12.41662441 9.39106127 -14.5 9.375 C-15.66015625 9.36339844 -16.8203125 9.35179687 -18.015625 9.33984375 C-21.41366549 9.32743743 -21.41366549 9.32743743 -25.25 10.4375 C-26.57 7.7975 -27.89 5.1575 -29.25 2.4375 C-20.68083366 -2.07895473 -9.10491363 -4.46546719 0 0 Z " fill="#F7F8FD" transform="translate(353.25,623.5625)"/>
<path d="M0 0 C3.74885576 2.31546973 5.74569744 5.17459232 7.125 9.3125 C7.20981773 11.89880224 7.24098229 14.45728056 7.22265625 17.04296875 C7.2212413 17.79338943 7.21982635 18.54381012 7.21836853 19.31697083 C7.2127756 21.7113546 7.20022444 24.10564453 7.1875 26.5 C7.18248408 28.12434761 7.17792134 29.74869668 7.17382812 31.37304688 C7.16280848 35.35290069 7.14554873 39.33268444 7.125 43.3125 C3.495 43.3125 -0.135 43.3125 -3.875 43.3125 C-3.89481934 42.41942139 -3.91463867 41.52634277 -3.93505859 40.60620117 C-4.01318698 37.29049292 -4.09987971 33.97523838 -4.19238281 30.65991211 C-4.23064866 29.22542932 -4.26550581 27.79085135 -4.296875 26.35620117 C-4.34257862 24.29311122 -4.40056193 22.23067505 -4.4609375 20.16796875 C-4.4923584 18.92684326 -4.5237793 17.68571777 -4.55615234 16.40698242 C-4.64899209 13.14613899 -4.64899209 13.14613899 -6.875 10.3125 C-12.32417544 9.53543177 -12.32417544 9.53543177 -16.96630859 11.92260742 C-19.48501432 15.07630535 -19.41408938 17.04059491 -19.484375 21.046875 C-19.51660156 22.34238281 -19.54882812 23.63789062 -19.58203125 24.97265625 C-19.59677469 26.33593302 -19.61109222 27.69921445 -19.625 29.0625 C-19.65316814 30.44144376 -19.68309678 31.82035275 -19.71484375 33.19921875 C-19.78556725 36.57037216 -19.83825504 39.9408328 -19.875 43.3125 C-23.835 43.3125 -27.795 43.3125 -31.875 43.3125 C-31.875 29.1225 -31.875 14.9325 -31.875 0.3125 C-28.575 0.3125 -25.275 0.3125 -21.875 0.3125 C-21.215 1.6325 -20.555 2.9525 -19.875 4.3125 C-19.09125 3.673125 -18.3075 3.03375 -17.5 2.375 C-12.25163148 -1.74871812 -6.38090843 -1.52586941 0 0 Z " fill="#F8F9FD" transform="translate(683.875,622.6875)"/>
<path d="M0 0 C2.77885957 2.68921893 2.91369879 3.5941457 3.25 7.5625 C3.17922039 13.12375482 0.92999548 16.816088 -2.9375 20.8125 C-5.80110714 22.24430357 -7.90575887 22.21812404 -11.0625 21.875 C-13.0625 19.875 -13.0625 19.875 -13.625 17.0625 C-12.97495151 13.37889189 -12.48078987 13.06933281 -9.5625 11 C-8.40819823 10.27169055 -7.24492427 9.55670379 -6.0625 8.875 C-6.5575 6.895 -6.5575 6.895 -7.0625 4.875 C-12.0125 3.885 -12.0125 3.885 -17.0625 2.875 C-17.0625 12.445 -17.0625 22.015 -17.0625 31.875 C-19.5375 32.37 -19.5375 32.37 -22.0625 32.875 C-22.52398438 32.22273437 -22.98546875 31.57046875 -23.4609375 30.8984375 C-29.99128631 22.14828633 -37.17017801 17.99680083 -47.0625 13.875 C-49.0625 11.875 -49.0625 11.875 -49.6875 9.1875 C-48.85062177 4.75204538 -46.9360082 3.25235471 -43.48828125 0.484375 C-30.2734654 -8.28294244 -13.12362921 -9.1061917 0 0 Z " fill="#F6F7FC" transform="translate(612.0625,721.125)"/>
<path d="M0 0 C3.63 0 7.26 0 11 0 C11.02505615 0.85754883 11.0501123 1.71509766 11.07592773 2.59863281 C11.17123412 5.7893437 11.27045751 8.97990219 11.37231445 12.17041016 C11.4155455 13.54959378 11.45722866 14.92882685 11.49731445 16.30810547 C11.55530403 18.29406938 11.61937723 20.27985269 11.68359375 22.265625 C11.72025146 23.45961914 11.75690918 24.65361328 11.79467773 25.88378906 C11.96208994 28.42463255 12.26317859 30.5771424 13 33 C14.43739513 33.02712066 15.87493863 33.04645067 17.3125 33.0625 C18.11300781 33.07410156 18.91351563 33.08570313 19.73828125 33.09765625 C22.16861334 33.09657855 22.16861334 33.09657855 25 32 C25.33 21.44 25.66 10.88 26 0 C29.96 0 33.92 0 38 0 C38 14.19 38 28.38 38 43 C34.7 43 31.4 43 28 43 C28 41.35 28 39.7 28 38 C27.54109375 38.34933594 27.0821875 38.69867187 26.609375 39.05859375 C25.68898438 39.74115234 25.68898438 39.74115234 24.75 40.4375 C24.14671875 40.88996094 23.5434375 41.34242188 22.921875 41.80859375 C18.84878898 44.33357594 14.70782621 44.32467767 10 44 C6.36853654 42.67311912 4.50002216 41.6724436 2.1875 38.5625 C-0.0092498 33.82214517 -0.11842122 29.84214656 -0.09765625 24.609375 C-0.0962413 23.90476135 -0.09482635 23.20014771 -0.09336853 22.47418213 C-0.08778933 20.23274416 -0.07524073 17.99140757 -0.0625 15.75 C-0.05748231 14.22656395 -0.05291987 12.70312632 -0.04882812 11.1796875 C-0.03782674 7.45309228 -0.02057646 3.72655604 0 0 Z " fill="#F8F9FD" transform="translate(278,623)"/>
<path d="M0 0 C15.86065574 0 15.86065574 0 20.49609375 4.4296875 C26.26627945 11.00083383 25.54804546 18.75643442 25.18359375 27.01855469 C24.68659193 32.38247325 22.31833143 35.71462685 18.5 39.4375 C12.42701233 43.2331173 7.60985717 42 0 42 C0 28.14 0 14.28 0 0 Z " fill="#3450E0" transform="translate(234,614)"/>
<path d="M0 0 C15.3 0 15.3 0 21.3125 4.875 C26.25823474 11.10296226 25.53744474 18.43378575 25 26 C23.90347957 32.00516265 21.954019 36.19807844 17 40 C11.15601374 42.92199313 7.13176232 42 0 42 C0 28.14 0 14.28 0 0 Z " fill="#3551E1" transform="translate(476,614)"/>
<path d="M0 0 C0.0270043 1.45823212 0.04639787 2.91660675 0.0625 4.375 C0.07410156 5.18710937 0.08570313 5.99921875 0.09765625 6.8359375 C0 9 0 9 -1 11 C-3.4887744 11.31733007 -5.95019108 11.37947445 -8.45703125 11.4609375 C-11.82646641 12.17519564 -12.87109029 13.31099646 -15 16 C-15.63995961 19.0849946 -15.63995961 19.0849946 -15.609375 22.515625 C-15.64160156 23.76601563 -15.67382812 25.01640625 -15.70703125 26.3046875 C-15.72830078 28.25761719 -15.72830078 28.25761719 -15.75 30.25 C-15.77964844 31.56742188 -15.80929687 32.88484375 -15.83984375 34.2421875 C-15.91054536 37.49446134 -15.9575357 40.74723492 -16 44 C-19.96 44 -23.92 44 -28 44 C-28 29.81 -28 15.62 -28 1 C-24.7 1 -21.4 1 -18 1 C-17.34 2.32 -16.68 3.64 -16 5 C-15.21625 4.175 -14.4325 3.35 -13.625 2.5 C-9.49653734 -1.02308712 -5.1589339 -0.45879847 0 0 Z " fill="#F5F7FD" transform="translate(395,622)"/>
<path d="M0 0 C-0.14107747 1.45880109 -0.28802415 2.91703551 -0.4375 4.375 C-0.51871094 5.18710937 -0.59992187 5.99921875 -0.68359375 6.8359375 C-1 9 -1 9 -2 11 C-4.4887744 11.31733007 -6.95019108 11.37947445 -9.45703125 11.4609375 C-12.82646641 12.17519564 -13.87109029 13.31099646 -16 16 C-16.63995961 19.0849946 -16.63995961 19.0849946 -16.609375 22.515625 C-16.64160156 23.76601563 -16.67382812 25.01640625 -16.70703125 26.3046875 C-16.72830078 28.25761719 -16.72830078 28.25761719 -16.75 30.25 C-16.77964844 31.56742188 -16.80929687 32.88484375 -16.83984375 34.2421875 C-16.91055388 37.49485343 -16.96324786 40.74680193 -17 44 C-20.63 44 -24.26 44 -28 44 C-28 29.81 -28 15.62 -28 1 C-24.7 1 -21.4 1 -18 1 C-18 2.65 -18 4.3 -18 6 C-17.34 6 -16.68 6 -16 6 C-15.67 5.01 -15.34 4.02 -15 3 C-10.50230427 -0.9173479 -5.61997238 -0.29463933 0 0 Z " fill="#F9FAFD" transform="translate(818,622)"/>
<path d="M0 0 C2.43119623 1.87015094 3.64069173 3.28138345 5 6 C5.14901491 8.10053716 5.22138453 10.20687825 5.25 12.3125 C5.27578125 13.44300781 5.3015625 14.57351563 5.328125 15.73828125 C4.9685426 19.31270151 4.14022123 21.14810326 2 24 C-1.19491759 25.59745879 -4.53209389 25.50816842 -8 25 C-10.96858157 22.79259319 -11.82865791 21.51402627 -13 18 C-13.1447963 16.04524991 -13.22067502 14.0848862 -13.25 12.125 C-13.28867187 10.58199219 -13.28867187 10.58199219 -13.328125 9.0078125 C-12.95503198 5.58779313 -12.03027507 3.74974147 -10 1 C-6.80766515 -0.59616743 -3.46538503 -0.51466114 0 0 Z " fill="#304CDD" transform="translate(543,632)"/>
<path d="M0 0 C3.2469192 0.82231101 4.82131493 2.07591432 7.09765625 4.53125 C7.61425163 7.42114533 7.80118745 9.59712596 7.72265625 12.46875 C7.75166016 13.52352539 7.75166016 13.52352539 7.78125 14.59960938 C7.74459804 18.51037353 7.21228105 20.38188446 4.81640625 23.50390625 C0.77553098 26.51714514 -0.98068633 26.16630257 -5.90234375 25.53125 C-8.07710776 23.98786909 -8.72067012 22.89459727 -9.90234375 20.53125 C-10.07938967 17.89007311 -10.17975923 15.29928404 -10.21484375 12.65625 C-10.24384766 11.93566406 -10.27285156 11.21507812 -10.30273438 10.47265625 C-10.34458252 6.97672689 -10.18878018 4.93125154 -8.12890625 2.0546875 C-5.44489167 0.21825647 -3.21917708 0.05119964 0 0 Z " fill="#314CDC" transform="translate(719.90234375,631.46875)"/>
<path d="M0 0 C20.46 0 40.92 0 62 0 C62 0.33 62 0.66 62 1 C55.4 1 48.8 1 42 1 C42 1.66 42 2.32 42 3 C40.60201172 3.03867187 40.60201172 3.03867187 39.17578125 3.078125 C26.32984876 3.64963261 14.47345337 5.52654663 5 15 C4.63239269 17.32817964 4.29758419 19.6618385 4 22 C3.01 22 2.02 22 1 22 C1.33 22.99 1.66 23.98 2 25 C2.32909171 31.07851754 2.06466852 37.01123956 1 43 C0.67 43 0.34 43 0 43 C0 28.81 0 14.62 0 0 Z " fill="#2942DB" transform="translate(559,712)"/>
<path d="M0 0 C5.94 0 11.88 0 18 0 C18 5.94 18 11.88 18 18 C12.06 18 6.12 18 0 18 C0 12.06 0 6.12 0 0 Z " fill="#FBFCFD" transform="translate(609,405)"/>
<path d="M0 0 C5.94 0 11.88 0 18 0 C18 5.94 18 11.88 18 18 C12.06 18 6.12 18 0 18 C0 12.06 0 6.12 0 0 Z " fill="#FBFCFD" transform="translate(632,405)"/>
<path d="M0 0 C5.94 0 11.88 0 18 0 C18 5.94 18 11.88 18 18 C12.06 18 6.12 18 0 18 C0 12.06 0 6.12 0 0 Z " fill="#FAFBFD" transform="translate(632,382)"/>
<path d="M0 0 C5.94 0 11.88 0 18 0 C18 5.94 18 11.88 18 18 C12.06 18 6.12 18 0 18 C0 12.06 0 6.12 0 0 Z " fill="#FBFCFD" transform="translate(609,382)"/>
<path d="M0 0 C0.33 0 0.66 0 1 0 C1.495 8.415 1.495 8.415 2 17 C3.28446919 14.43106162 3.32977144 12.23423663 3.5625 9.375 C3.64628906 8.37210937 3.73007812 7.36921875 3.81640625 6.3359375 C3.90728516 5.17964844 3.90728516 5.17964844 4 4 C4.33 4 4.66 4 5 4 C5 8.62 5 13.24 5 18 C10.94 18 16.88 18 23 18 C23 12.06 23 6.12 23 0 C23.33 0 23.66 0 24 0 C24.19696449 3.10364229 24.38093262 6.20792192 24.5625 9.3125 C24.64661133 10.63411133 24.64661133 10.63411133 24.73242188 11.98242188 C24.78076172 12.82998047 24.82910156 13.67753906 24.87890625 14.55078125 C24.9260376 15.33106689 24.97316895 16.11135254 25.02172852 16.9152832 C25 19 25 19 24 22 C23.9193378 23.48123547 23.89238807 24.96582204 23.90234375 26.44921875 C23.90556641 27.29677734 23.90878906 28.14433594 23.91210938 29.01757812 C23.92048828 29.89865234 23.92886719 30.77972656 23.9375 31.6875 C23.94201172 32.58017578 23.94652344 33.47285156 23.95117188 34.39257812 C23.96295017 36.59511987 23.97939836 38.79752599 24 41 C23.67 41 23.34 41 23 41 C23 35.06 23 29.12 23 23 C17.06 23 11.12 23 5 23 C5 28.94 5 34.88 5 41 C4.67 41 4.34 41 4 41 C3.67 38.69 3.34 36.38 3 34 C2.7834375 35.7015625 2.7834375 35.7015625 2.5625 37.4375 C2 41 2 41 1 42 C-0.41570123 42.08651611 -1.835595 42.10704904 -3.25390625 42.09765625 C-4.10791016 42.09443359 -4.96191406 42.09121094 -5.84179688 42.08789062 C-6.73962891 42.07951172 -7.63746094 42.07113281 -8.5625 42.0625 C-9.46419922 42.05798828 -10.36589844 42.05347656 -11.29492188 42.04882812 C-13.53001314 42.03700225 -15.76497437 42.0205222 -18 42 C-18 41.67 -18 41.34 -18 41 C-12.06 41 -6.12 41 0 41 C0 35.06 0 29.12 0 23 C-5.94 23 -11.88 23 -18 23 C-12.33539287 20.16769643 -7.31220712 20.37873243 -1 20 C-6.61 19.67 -12.22 19.34 -18 19 C-18 18.67 -18 18.34 -18 18 C-12.06 18 -6.12 18 0 18 C0 12.06 0 6.12 0 0 Z " fill="#5974E6" transform="translate(627,382)"/>
<path d="M0 0 C4.29 0 8.58 0 13 0 C13 9.24 13 18.48 13 28 C6.1875 24.5625 6.1875 24.5625 4.05541992 23.48266602 C1.39328479 22.1456724 -1.16990594 20.94336469 -4 20 C-4 19.34 -4 18.68 -4 18 C-3.195625 17.71125 -2.39125 17.4225 -1.5625 17.125 C1.1326468 16.26737432 1.1326468 16.26737432 2 14 C2.28649471 8.27010578 1.90869115 5.72607345 0 0 Z " fill="#3147D8" transform="translate(336,712)"/>
<path d="M0 0 C0 5.28 0 10.56 0 16 C-5.61 13.36 -11.22 10.72 -17 8 C-14.28331221 5.28331221 -12.42160505 3.99457817 -9.0625 2.3125 C-7.78052734 1.65701172 -7.78052734 1.65701172 -6.47265625 0.98828125 C-4 0 -4 0 0 0 Z " fill="#394ED8" transform="translate(442,723)"/>
<path d="M0 0 C0 5.28 0 10.56 0 16 C-5.33333333 13.33333333 -10.66666667 10.66666667 -16 8 C-16 7.34 -16 6.68 -16 6 C-11.4224091 2.70985654 -5.68667663 0 0 0 Z " fill="#2F44D3" transform="translate(758,723)"/>
<path d="M0 0 C0.30859658 3.39456234 0.38720463 5.37710559 -1.4375 8.3125 C-5.02401546 10.67435164 -8.71911278 11.24792783 -13 11 C-15 9 -15 9 -15.4375 6.625 C-15 4 -15 4 -13.125 1.6875 C-8.7364953 -0.68229254 -4.88510148 -0.34148282 0 0 Z " fill="#4D68E1" transform="translate(348,647)"/>
<path d="M0 0 C20.46 0 40.92 0 62 0 C62 0.33 62 0.66 62 1 C55.4 1 48.8 1 42 1 C42 1.66 42 2.32 42 3 C41.4652002 2.93433838 40.93040039 2.86867676 40.37939453 2.80102539 C32.22700374 1.88709152 24.06765701 1.6680008 15.875 1.4375 C14.42707378 1.39419844 12.97915698 1.35058094 11.53125 1.30664062 C8.02093422 1.20078894 4.51051087 1.09919761 1 1 C1.03552979 2.02359619 1.07105957 3.04719238 1.10766602 4.10180664 C1.23870397 7.92404491 1.36162374 11.74650969 1.48217773 15.5690918 C1.53532451 17.21890344 1.5906298 18.8686471 1.64819336 20.51831055 C1.7308734 22.89877669 1.80561351 25.27938476 1.87890625 27.66015625 C1.90594131 28.38960953 1.93297638 29.11906281 1.96083069 29.87062073 C2.09025195 34.37993497 1.75811136 38.55088181 1 43 C0.67 43 0.34 43 0 43 C0 28.81 0 14.62 0 0 Z " fill="#1F38D8" transform="translate(559,712)"/>
<path d="M0 0 C0.375 3.25 0.375 3.25 0 7 C-3.07500873 9.85536525 -5.0799884 10.89384482 -9.25 11.375 C-12 11 -12 11 -14 9 C-14.4375 6.0625 -14.4375 6.0625 -14 3 C-9.98493129 -0.88555036 -5.22857545 -0.30756326 0 0 Z " fill="#3850D7" transform="translate(632,647)"/>
<path d="M0 0 C1.77734375 1.15234375 1.77734375 1.15234375 3 3 C3 4.98 3 6.96 3 9 C-2.28 9 -7.56 9 -13 9 C-13 4 -13 4 -11.5625 1.6875 C-7.90844692 -0.71882764 -4.26857557 -0.87258175 0 0 Z " fill="#425DE1" transform="translate(422,631)"/>
<path d="M0 0 C0.79921875 0.01804687 1.5984375 0.03609375 2.421875 0.0546875 C3.02515625 0.07789063 3.6284375 0.10109375 4.25 0.125 C4.625 2.8125 4.625 2.8125 4.25 6.125 C1.26145356 9.39816991 -0.56820481 10.96591219 -5 11.5625 C-7.75 11.125 -7.75 11.125 -9.75 9.125 C-9.625 5.625 -9.625 5.625 -8.75 2.125 C-5.84271097 0.12220089 -3.47255833 -0.10213407 0 0 Z " fill="#3D56DE" transform="translate(765.75,646.875)"/>
<path d="M0 0 C9 1 9 1 11 3 C10.84375 5 10.84375 5 10 7 C8.40625 8.0625 8.40625 8.0625 6.5 9 C4.50471696 10.16922997 4.50471696 10.16922997 3 12 C2.33255019 15.17570071 2.18795577 18.11357363 2.16796875 21.35546875 C2 24 2 24 0 26 C0 17.42 0 8.84 0 0 Z " fill="#3446D6" transform="translate(596,724)"/>
<path d="M0 0 C2 2 2 2 2.3125 4.9375 C2 8 2 8 0.875 9.875 C-1.88090884 11.52854531 -3.85075452 11.39365568 -7 11 C-8.9375 9.9375 -8.9375 9.9375 -10 8 C-9.8125 4.375 -9.8125 4.375 -9 1 C-5.98675805 -0.50662097 -3.31713623 -0.17770373 0 0 Z " fill="#F4F6FD" transform="translate(337,743)"/>
<path d="M0 0 C5.97873264 0.11935764 5.97873264 0.11935764 7.08984375 1.23046875 C7.46070468 7.07152835 7.46070468 7.07152835 7.08984375 9.23046875 C4.08984375 11.23046875 4.08984375 11.23046875 0.46484375 10.91796875 C-2.91015625 10.23046875 -2.91015625 10.23046875 -3.91015625 9.23046875 C-4.09765625 5.79296875 -4.09765625 5.79296875 -3.91015625 2.23046875 C-1.91015625 0.23046875 -1.91015625 0.23046875 0 0 Z " fill="#F3F5FD" transform="translate(425.91015625,742.76953125)"/>
<path d="M0 0 C2 2 2 2 2.3125 4.9375 C2 8 2 8 0.8125 9.875 C-1.65507108 11.40659584 -3.14519831 11.42822025 -6 11 C-7.8125 9.875 -7.8125 9.875 -9 8 C-9.4375 5 -9.4375 5 -9 2 C-6.12524616 -1.3006433 -4.03854228 -1.38160657 0 0 Z " fill="#F1F3FC" transform="translate(747,743)"/>
<path d="M0 0 C10.23 0 20.46 0 31 0 C31 0.99 31 1.98 31 3 C30.01 2.67 29.02 2.34 28 2 C26.55396119 1.91941418 25.10449827 1.89238015 23.65625 1.90234375 C22.82222656 1.90556641 21.98820313 1.90878906 21.12890625 1.91210938 C20.26136719 1.92048828 19.39382813 1.92886719 18.5 1.9375 C17.19869141 1.94426758 17.19869141 1.94426758 15.87109375 1.95117188 C14.25975175 1.95988856 12.64841863 1.9706578 11.03710938 1.98413086 C8.35805332 2.00500078 5.67913096 2 3 2 C1.91205498 6.38566071 1.87102686 10.65582765 1.90234375 15.14453125 C1.90446617 16.2992115 1.90446617 16.2992115 1.90663147 17.47721863 C1.91220394 19.92235288 1.92475129 22.36739368 1.9375 24.8125 C1.94251856 26.47591013 1.94708085 28.1393217 1.95117188 29.80273438 C1.96216434 33.86852528 1.9794099 37.93424683 2 42 C1.01 42.495 1.01 42.495 0 43 C0 28.81 0 14.62 0 0 Z " fill="#253DD5" transform="translate(727,712)"/>
<path d="M0 0 C0 3.96 0 7.92 0 12 C-3.96 10.02 -7.92 8.04 -12 6 C-12 5.34 -12 4.68 -12 4 C-10.75539217 3.32332002 -9.50403104 2.65905281 -8.25 2 C-7.55390625 1.62875 -6.8578125 1.2575 -6.140625 0.875 C-4 0 -4 0 0 0 Z " fill="#3A4ED7" transform="translate(586,725)"/>
<path d="M0 0 C3.63 0 7.26 0 11 0 C11 0.33 11 0.66 11 1 C8.94921875 1.22786458 6.8984375 1.45572917 4.84765625 1.68359375 C2.98859771 1.81886614 2.98859771 1.81886614 2 3 C1.93611857 5.60788789 1.93376905 8.1899428 1.97265625 10.796875 C1.98530993 12.41145613 1.99767034 14.02603959 2.00976562 15.640625 C2.03453194 18.19278129 2.06243195 20.74481804 2.09594727 23.296875 C2.12624708 25.7552159 2.14396107 28.21340627 2.16015625 30.671875 C2.17361588 31.43038757 2.1870755 32.18890015 2.20094299 32.97039795 C2.220419 37.1041879 1.8584556 40.28400543 0 44 C-1.32 43.67 -2.64 43.34 -4 43 C-3.01 43 -2.02 43 -1 43 C-0.67 28.81 -0.34 14.62 0 0 Z " fill="#283EDC" transform="translate(359,712)"/>
<path d="M0 0 C0 3 0 3 -1.5 4.75 C-4.13969343 7.12572409 -6.81310585 9.45854245 -9.49609375 11.78515625 C-14.74781181 16.43059173 -19.86172784 21.22986624 -25 26 C-25.66 25.67 -26.32 25.34 -27 25 C-13.09624284 10.90549007 -13.09624284 10.90549007 -6 5 C-5.40058594 4.49597656 -4.80117187 3.99195313 -4.18359375 3.47265625 C-2.79421211 2.30892824 -1.39800511 1.15335422 0 0 Z " fill="#4B70EB" transform="translate(256,168)"/>
<path d="M0 0 C2.97 0 5.94 0 9 0 C9 3.96 9 7.92 9 12 C8.67 12 8.34 12 8 12 C8 8.37 8 4.74 8 1 C6.35 1.33 4.7 1.66 3 2 C2.95101562 2.69867187 2.90203125 3.39734375 2.8515625 4.1171875 C2.77679687 5.02726563 2.70203125 5.93734375 2.625 6.875 C2.52058594 8.23238281 2.52058594 8.23238281 2.4140625 9.6171875 C2 12 2 12 0 14 C0 9.38 0 4.76 0 0 Z " fill="#263ED1" transform="translate(670,712)"/>
<path d="M0 0 C0.33 0 0.66 0 1 0 C2.73396793 8.0822968 3.65368672 15.81158352 2 24 C1.34 24.66 0.68 25.32 0 26 C0 17.42 0 8.84 0 0 Z " fill="#2039DE" transform="translate(596,724)"/>
<path d="M0 0 C0.33 0 0.66 0 1 0 C1 5.94 1 11.88 1 18 C-3.04545455 13.95454545 -3.04545455 13.95454545 -4 10 C-4.99 9.67 -5.98 9.34 -7 9 C-4.69 9.33 -2.38 9.66 0 10 C0 6.7 0 3.4 0 0 Z " fill="#9CA7E3" transform="translate(660,712)"/>
<path d="M0 0 C0.99 0.495 0.99 0.495 2 1 C2.34375 2.9609375 2.34375 2.9609375 2.5 5.375 C2.72941463 8.89651464 2.95292864 9.92939296 5 13 C2.525 14.485 2.525 14.485 0 16 C0 10.72 0 5.44 0 0 Z " fill="#3A53DA" transform="translate(688,712)"/>
<path d="M0 0 C10.23 0 20.46 0 31 0 C31 0.99 31 1.98 31 3 C30.01 3 29.02 3 28 3 C28 2.34 28 1.68 28 1 C18.76 1 9.52 1 0 1 C0 0.67 0 0.34 0 0 Z " fill="#2239D7" transform="translate(410,712)"/>
<path d="M0 0 C2.6766477 0.91397726 4.42046542 2.05030387 6.5625 3.875 C5.9025 3.875 5.2425 3.875 4.5625 3.875 C4.2325 4.535 3.9025 5.195 3.5625 5.875 C2.9025 5.215 2.2425 4.555 1.5625 3.875 C-2.24659895 4.19917863 -4.22122163 4.73081442 -7.4375 6.875 C-4.25772472 -0.21834486 -4.25772472 -0.21834486 0 0 Z " fill="#364AD0" transform="translate(744.4375,739.125)"/>
<path d="M0 0 C-4.45658222 2.31082041 -7.90360271 4 -13 4 C-13 3.34 -13 2.68 -13 2 C-15.31 2 -17.62 2 -20 2 C-20 1.67 -20 1.34 -20 1 C-13.31184516 0.37577221 -6.71884955 -0.12920865 0 0 Z " fill="#6083EC" transform="translate(487,77)"/>
<path d="M0 0 C0.99 0.33 1.98 0.66 3 1 C-2.94 6.445 -2.94 6.445 -9 12 C-9.66 11.67 -10.32 11.34 -11 11 C-7.37 7.37 -3.74 3.74 0 0 Z " fill="#4065EA" transform="translate(240,182)"/>
<path d="M0 0 C5.94 2.475 5.94 2.475 12 5 C7.6542186 6.08644535 7.05039452 5.90680911 3.25 4.0625 C2.45078125 3.68222656 1.6515625 3.30195312 0.828125 2.91015625 C0.22484375 2.60980469 -0.3784375 2.30945313 -1 2 C-0.67 1.34 -0.34 0.68 0 0 Z " fill="#404FD0" transform="translate(370,844)"/>
<path d="M0 0 C0 0.99 0 1.98 0 3 C-2.8125 5.75 -2.8125 5.75 -6 8 C-6.99 7.67 -7.98 7.34 -9 7 C-6.03 4.69 -3.06 2.38 0 0 Z " fill="#4466E7" transform="translate(627,332)"/>
<path d="M0 0 C0.33 0.66 0.66 1.32 1 2 C-1.31 4.64 -3.62 7.28 -6 10 C-6.66 9.67 -7.32 9.34 -8 9 C-5.36 6.03 -2.72 3.06 0 0 Z " fill="#486BEA" transform="translate(216,206)"/>
<path d="M0 0 C2.02045442 0.60183749 4.02111039 1.27306096 6 2 C6.33 2.66 6.66 3.32 7 4 C3.52176885 5.15941038 1.54104422 4.70820884 -2 4 C-1.34 2.68 -0.68 1.36 0 0 Z " fill="#5769E2" transform="translate(333,739)"/>
<path d="M0 0 C0.66 0.33 1.32 0.66 2 1 C0.21825212 3.30142435 -1.16304165 4.80034391 -4.046875 5.48828125 C-6.0246611 5.72323102 -8.01271872 5.86751458 -10 6 C-9.46375 5.7525 -8.9275 5.505 -8.375 5.25 C-5.43575748 3.70303025 -2.74245592 1.86985631 0 0 Z " fill="#3048D9" transform="translate(611,739)"/>
<path d="M0 0 C0.99 0.33 1.98 0.66 3 1 C2.236875 1.5775 1.47375 2.155 0.6875 2.75 C-1.66200917 4.71703093 -3.29323505 6.48476744 -5 9 C-4.5206753 4.68607774 -3.2542015 2.83430453 0 0 Z " fill="#2F4AD9" transform="translate(405,714)"/>
<path d="M0 0 C0.33 0.99 0.66 1.98 1 3 C-0.98 4.98 -2.96 6.96 -5 9 C-5.66 8.67 -6.32 8.34 -7 8 C-4.69 5.36 -2.38 2.72 0 0 Z " fill="#5478EF" transform="translate(207,216)"/>
</svg>
