<?xml version="1.0" encoding="UTF-8"?>
<svg version="1.1" xmlns="http://www.w3.org/2000/svg" width="1125" height="255">
<path d="M0 0 C371.25 0 742.5 0 1125 0 C1125 84.15 1125 168.3 1125 255 C753.75 255 382.5 255 0 255 C0 170.85 0 86.7 0 0 Z " fill="#FEFEFE" transform="translate(0,0)"/>
<path d="M0 0 C21.19646994 17.73166235 34.90132484 39.50189039 38 67.3125 C40.08953898 94.36315912 33.20366538 121.28329519 15.5625 142.25 C-1.71753876 161.99989877 -26.57682436 175.74104825 -53.07861328 177.51904297 C-56.30538929 177.6154019 -59.52184615 177.64171629 -62.75 177.625 C-63.89452637 177.61936035 -65.03905273 177.6137207 -66.21826172 177.60791016 C-92.55475587 177.23098145 -114.76424683 166.85020048 -134 149.3125 C-134.67675781 148.71824219 -135.35351562 148.12398437 -136.05078125 147.51171875 C-151.42083795 133.27233289 -161.78484226 109.81762477 -163.22509766 89.06982422 C-163.69536894 74.81873972 -163.82797809 60.86411115 -159 47.3125 C-158.64591064 46.31718262 -158.64591064 46.31718262 -158.28466797 45.30175781 C-147.94264785 17.38963904 -127.52732325 -1.29715122 -101 -13.6875 C-100.10152344 -14.11289062 -99.20304687 -14.53828125 -98.27734375 -14.9765625 C-66.66873144 -28.80203233 -26.69551494 -20.44403359 0 0 Z " fill="#3454E5" transform="translate(191,39.6875)"/>
<path d="M0 0 C6.18891835 -0.09969757 12.3773579 -0.17185698 18.56689453 -0.21972656 C20.66756343 -0.23970531 22.7681777 -0.26689789 24.86865234 -0.30175781 C39.91892635 -0.54508131 54.1031981 -0.6953427 66 10 C74.29024896 20.09092669 75.59656935 30.23655584 75 43 C73.94873657 51.72548644 69.59289576 60.44095754 63.15234375 66.40234375 C53.54347554 73.53487932 43.63325744 76.32911029 31.91015625 76.1953125 C30.4933683 76.19106766 30.4933683 76.19106766 29.04795837 76.18673706 C26.05267276 76.17560684 23.05769414 76.1505156 20.0625 76.125 C18.0227908 76.11496095 15.98307688 76.10583672 13.94335938 76.09765625 C8.9621226 76.07569096 3.98111322 76.04121076 -1 76 C-1 75.34 -1 74.68 -1 74 C1.31 73.01 3.62 72.02 6 71 C6 48.89 6 26.78 6 4 C4.02 3.34 2.04 2.68 0 2 C0 1.34 0 0.68 0 0 Z " fill="#2143E0" transform="translate(588,95)"/>
<path d="M0 0 C6.26217148 -0.05093732 12.52428901 -0.08583284 18.78662109 -0.10986328 C20.91457109 -0.11988705 23.04250744 -0.13350961 25.17041016 -0.15087891 C28.23864118 -0.17528692 31.3066892 -0.18651961 34.375 -0.1953125 C35.78954468 -0.21079636 35.78954468 -0.21079636 37.23266602 -0.22659302 C47.50599942 -0.22831673 57.48174574 2.0233003 65.30859375 9.08203125 C74.10953737 18.56121273 75.50044774 28.03453906 75.2734375 40.62890625 C74.83687956 50.60706474 71.04702931 58.95297069 64 66 C51.33841459 77.07578998 35.98256596 76.53312793 20.1875 76.25 C18.22332562 76.22989287 16.25913123 76.2116496 14.29492188 76.1953125 C9.52944521 76.15167707 4.76494897 76.08288531 0 76 C0 75.34 0 74.68 0 74 C0.969375 73.71125 1.93875 73.4225 2.9375 73.125 C6.10664203 72.35785318 6.10664203 72.35785318 7 70 C7.10182558 67.94791766 7.13841924 65.89248634 7.14526367 63.83789062 C7.15164352 62.54314819 7.15802338 61.24840576 7.16459656 59.91442871 C7.166125 58.49503619 7.16723908 57.07564316 7.16796875 55.65625 C7.17118059 54.20658332 7.1745446 52.75691697 7.17805481 51.30725098 C7.18404668 48.2674891 7.1858946 45.22775565 7.18530273 42.18798828 C7.185201 38.28707773 7.19886475 34.38634873 7.21607494 30.48548126 C7.22717519 27.49154823 7.22922257 24.4976594 7.22869301 21.50370789 C7.22987567 20.06515374 7.2343134 18.62659854 7.24202538 17.18806458 C7.25178688 15.17943654 7.24769296 13.17075546 7.24291992 11.16210938 C7.24434494 10.01786499 7.24576996 8.87362061 7.24723816 7.69470215 C7.27583723 4.84947475 7.27583723 4.84947475 5 3 C2.42938689 2.35232207 2.42938689 2.35232207 0 2 C0 1.34 0 0.68 0 0 Z " fill="#1C3FDF" transform="translate(254,95)"/>
<path d="M0 0 C4.62 0 9.24 0 14 0 C14.09070163 7.92836916 14.16394493 15.85632873 14.20724869 23.785079 C14.228042 27.46751258 14.25620588 31.14956997 14.30175781 34.83178711 C14.34551408 38.39150198 14.36919905 41.95085714 14.37950897 45.51082039 C14.39039642 47.51648459 14.42157424 49.52200594 14.45318604 51.52745056 C14.45542025 60.70178833 12.90515359 66.68377182 7.8125 74.25 C0.72211845 81.18281752 -6.83343812 83.42355616 -16.5703125 83.34765625 C-24.91544642 82.50173721 -32.3236016 77.46226243 -37.58984375 71.0703125 C-44.08991877 62.13866907 -46.28845787 51.93725032 -45 41 C-43.07694089 33.09027475 -38.80295918 26.50824844 -32.203125 21.6875 C-25.04844789 17.38203059 -18.24315589 16.04587967 -10 17 C-6.4756753 18.07935377 -3.35759268 19.44285557 0 21 C0 14.07 0 7.14 0 0 Z " fill="#F9F9FC" transform="translate(170,53)"/>
<path d="M0 0 C0.00546844 1.43366913 0.00546844 1.43366913 0.01104736 2.89630127 C0.04798099 11.90153901 0.10573552 20.90643427 0.18390274 29.91141129 C0.22342017 34.54105299 0.25558761 39.17050327 0.27099609 43.80029297 C0.28613474 48.26794084 0.32053011 52.73506262 0.36830902 57.2024765 C0.38315175 58.90726907 0.39104267 60.61213674 0.39188385 62.31699371 C0.39424667 64.7044134 0.42126831 67.09037104 0.45410156 69.47753906 C0.4490712 70.18316483 0.44404083 70.88879059 0.43885803 71.61579895 C0.51099248 75.00345502 0.77619268 76.71774905 2.90911865 79.40765381 C4.90470163 81.02990233 4.90470163 81.02990233 7 82 C7 82.66 7 83.32 7 84 C-0.26 84.33 -7.52 84.66 -15 85 C-15.495 81.535 -15.495 81.535 -16 78 C-16.763125 78.969375 -17.52625 79.93875 -18.3125 80.9375 C-20.26748815 83.42086332 -20.85650159 83.9521672 -24 85 C-29.81112953 85.47326956 -35.14773588 85.85997977 -40.5 83.375 C-47.49563149 76.72915008 -50.90146353 70.6726954 -51.46875 60.87890625 C-51.50278904 59.10706715 -51.51272589 57.33462034 -51.5 55.5625 C-51.49427979 54.63816162 -51.48855957 53.71382324 -51.48266602 52.76147461 C-51.27278327 44.7682632 -49.84516921 39.05974338 -44.25 33.15234375 C-38.87325622 28.25070018 -34.94711745 26.70945625 -27.5625 26.6875 C-26.26441406 26.67074219 -24.96632813 26.65398437 -23.62890625 26.63671875 C-19.88438345 27.0115741 -18.00355372 27.80665345 -15 30 C-15.13910487 26.41637224 -15.28745413 22.83318502 -15.4375 19.25 C-15.47681641 18.23421875 -15.51613281 17.2184375 -15.55664062 16.171875 C-15.59853516 15.1921875 -15.64042969 14.2125 -15.68359375 13.203125 C-15.73858032 11.85202637 -15.73858032 11.85202637 -15.79467773 10.47363281 C-15.98306407 8.20403661 -16.37366501 6.18437113 -17 4 C-19.475 3.505 -19.475 3.505 -22 3 C-22 2.34 -22 1.68 -22 1 C-19.27093526 0.83150207 -16.54176829 0.6651397 -13.8125 0.5 C-13.04357422 0.45230469 -12.27464844 0.40460938 -11.48242188 0.35546875 C-10.73154297 0.31035156 -9.98066406 0.26523438 -9.20703125 0.21875 C-8.5210083 0.17685547 -7.83498535 0.13496094 -7.12817383 0.09179688 C-4.75000166 -0.01078345 -2.38013621 -0.00576917 0 0 Z " fill="#1F41DF" transform="translate(968,87)"/>
<path d="M0 0 C4.95 0 9.9 0 15 0 C15 19.14 15 38.28 15 58 C12.05150583 55.05150583 9.17446666 52.15090029 6.37109375 49.08203125 C5.72849609 48.38529297 5.08589844 47.68855469 4.42382812 46.97070312 C3.0919743 45.52360531 1.76388318 44.07303599 0.43945312 42.61914062 C-0.20185547 41.92626953 -0.84316406 41.23339844 -1.50390625 40.51953125 C-2.07955322 39.89151611 -2.6552002 39.26350098 -3.24829102 38.61645508 C-7.59427367 34.6060368 -11.68474564 34.62893076 -17.375 34.75 C-22.12820069 35.20268578 -24.18428226 37.07098813 -27.25 40.5625 C-30.63373151 45.2755546 -30.48081075 49.3176912 -30 55 C-28.11130184 60.36787898 -25.08016831 63.45991584 -20 66 C-15.01933027 66.54644038 -11.1041693 66.54204675 -6.5625 64.3125 C-1.5955531 59.83013328 -0.39772237 55.34350923 1 49 C2.69514969 50.64378151 4.35315557 52.30842646 6 54 C6.63550781 54.639375 7.27101562 55.27875 7.92578125 55.9375 C8.56902344 56.618125 9.21226563 57.29875 9.875 58 C10.79925781 58.9590625 10.79925781 58.9590625 11.7421875 59.9375 C13 62 13 62 12.796875 64.56640625 C10.46467805 71.68875283 5.14305632 76.59865788 -1.18359375 80.265625 C-8.91325829 83.87026331 -17.6920925 84.69708607 -25.87109375 82.08203125 C-35.6954812 77.46142893 -42.12208822 70.8521709 -46.3125 60.875 C-48.29268792 49.71394081 -47.850856 39.27262816 -41.3125 29.8125 C-35.25373593 22.32112176 -27.94342438 17.82465891 -18.3359375 16.68359375 C-11.3386435 16.3780781 -6.32132208 18.06837237 0 21 C0 14.07 0 7.14 0 0 Z " fill="#F9F9FC" transform="translate(106,53)"/>
<path d="M0 0 C6.2299609 3.76547722 10.14317593 8.83746838 12.25 15.875 C12.69146534 19.321621 12.72713887 22.71600214 12.6875 26.1875 C12.67847656 27.12158691 12.66945313 28.05567383 12.66015625 29.01806641 C12.46423031 36.79387729 11.72054393 42.96140791 6.4140625 48.9453125 C-1.12100477 56.07619992 -8.79019454 56.42425419 -18.66796875 56.18359375 C-25.46099734 55.81312082 -29.47797057 53.47924171 -34.0625 48.5625 C-39.61694177 41.98947865 -40.30552141 35.35557123 -40.25 27.0625 C-40.24427979 26.08216797 -40.23855957 25.10183594 -40.23266602 24.09179688 C-40.02893638 15.87675955 -38.72336395 10.14704507 -33.03515625 4.03125 C-24.53229504 -3.85761904 -10.43196779 -4.89342682 0 0 Z " fill="#1E40DF" transform="translate(711.75,116.125)"/>
<path d="M0 0 C0 17.49 0 34.98 0 53 C10.26688407 48.05951983 10.26688407 48.05951983 16.72265625 38.99609375 C17.07636641 36.92505177 17.07636641 36.92505177 17 34 C17 33.34 17 32.68 17 32 C14.69 31.67 12.38 31.34 10 31 C10 30.01 10 29.02 10 28 C18.25 28 26.5 28 35 28 C34 31 34 31 32.25 32.0703125 C31.5075 32.41835937 30.765 32.76640625 30 33.125 C24.32544184 36.08524302 20.30175887 40.33213399 16 45 C18.19208002 50.93336713 21.50110495 56.2173347 24.7121582 61.63818359 C25.80648192 63.4898172 26.88876777 65.3481389 27.97070312 67.20703125 C28.67375069 68.39886752 29.377504 69.59028782 30.08203125 70.78125 C30.71343018 71.85439453 31.3448291 72.92753906 31.99536133 74.03320312 C34.05390023 77.0797705 36.39768204 79.41937507 39 82 C39 82.66 39 83.32 39 84 C30.42 84 21.84 84 13 84 C13 83.34 13 82.68 13 82 C13.66 81.67 14.32 81.34 15 81 C14.52911052 75.20159617 12.11187175 71.12813657 9.1875 66.25 C8.74857422 65.48300781 8.30964844 64.71601563 7.85742188 63.92578125 C7.42365234 63.19230469 6.98988281 62.45882812 6.54296875 61.703125 C6.15133545 61.03958008 5.75970215 60.37603516 5.35620117 59.69238281 C3.77765495 57.72253899 2.30868684 56.96376425 0 56 C0.10979085 59.60479946 0.24044045 63.20854679 0.375 66.8125 C0.4059375 67.83666016 0.436875 68.86082031 0.46875 69.91601562 C0.50742187 70.89892578 0.54609375 71.88183594 0.5859375 72.89453125 C0.63306885 74.25348511 0.63306885 74.25348511 0.68115234 75.63989258 C0.86027919 78.26525392 0.86027919 78.26525392 3 81 C4.485 81.495 4.485 81.495 6 82 C6 82.66 6 83.32 6 84 C-3.24 84 -12.48 84 -22 84 C-22 83.34 -22 82.68 -22 82 C-20.78251572 81.41200623 -20.78251572 81.41200623 -19.54043579 80.81213379 C-16.67302927 79.20219178 -16.67302927 79.20219178 -16.36508179 75.88806152 C-16.36110382 74.60693481 -16.35712585 73.32580811 -16.35302734 72.00585938 C-16.34426575 71.29822952 -16.33550415 70.59059967 -16.32647705 69.86152649 C-16.3044638 67.52164449 -16.31904011 65.18365128 -16.3359375 62.84375 C-16.33256986 61.21854286 -16.32771767 59.59333816 -16.32144165 57.96813965 C-16.3140678 54.56168647 -16.32479149 51.15588872 -16.34814453 47.74951172 C-16.3766336 43.38081446 -16.36023223 39.0136528 -16.33028221 34.6450119 C-16.31222247 31.28892424 -16.31796095 27.93320125 -16.33092117 24.57710266 C-16.3342589 22.96633218 -16.33015516 21.35552869 -16.31852341 19.74479675 C-16.30583515 17.49368496 -16.32515726 15.2450664 -16.35302734 12.99414062 C-16.35700531 11.71301392 -16.36098328 10.43188721 -16.36508179 9.11193848 C-16.67302927 5.79780822 -16.67302927 5.79780822 -19.54043579 4.18786621 C-20.35209198 3.79587036 -21.16374817 3.40387451 -22 3 C-22 2.34 -22 1.68 -22 1 C-19.27093526 0.83150207 -16.54176829 0.6651397 -13.8125 0.5 C-13.04357422 0.45230469 -12.27464844 0.40460938 -11.48242188 0.35546875 C-10.73154297 0.31035156 -9.98066406 0.26523438 -9.20703125 0.21875 C-8.17799683 0.1559082 -8.17799683 0.1559082 -7.12817383 0.09179688 C-4.75412636 -0.01060554 -2.37625496 0 0 0 Z " fill="#2042DF" transform="translate(752,87)"/>
<path d="M0 0 C6.32075422 1.65790275 10.65903146 5.45101512 14 11 C17.17299967 18.58089652 17.43031081 25.87576688 17.3125 34 C17.31572266 35.11117187 17.31894531 36.22234375 17.32226562 37.3671875 C17.25722369 47.41912233 16.69670368 58.67569338 9.6171875 66.53515625 C4.27237554 71.33429369 -0.94919386 72.21718733 -7.8515625 72.265625 C-10.30050569 71.96284657 -11.90835421 71.29700306 -14 70 C-15.38643662 67.22712675 -15.1425685 64.95658682 -15.16113281 61.85375977 C-15.17074036 60.56224503 -15.1803479 59.27073029 -15.19024658 57.94007874 C-15.19509381 56.52385636 -15.19937282 55.10763195 -15.203125 53.69140625 C-15.2088759 52.24413551 -15.21463364 50.7968648 -15.22039795 49.34959412 C-15.23090726 46.31403244 -15.23675058 43.27849724 -15.24023438 40.24291992 C-15.2457234 36.35099793 -15.26976002 32.45942504 -15.29820633 28.56761265 C-15.31681748 25.57792635 -15.32203745 22.58832447 -15.32357025 19.59858513 C-15.32660006 18.16363552 -15.33463967 16.7286875 -15.34775543 15.29379463 C-15.3647845 13.28781153 -15.36109543 11.28168476 -15.35644531 9.27563477 C-15.36009094 8.13361099 -15.36373657 6.99158722 -15.36749268 5.81495667 C-15 3 -15 3 -13.64471436 1.13267517 C-9.84446041 -1.48446821 -4.38766675 -0.39939749 0 0 Z " fill="#FCFCFE" transform="translate(294,97)"/>
<path d="M0 0 C6.44540407 0.11215135 10.73932838 0.83558327 15.375 5.4375 C24.66739211 16.02593628 24.36100187 31.46669511 23.625 44.74462891 C22.84041674 53.19575523 20.81338037 61.8282284 14.4375 67.8125 C8.35619153 72.14982057 1.79263812 73.62483278 -5.625 72.4375 C-7.24357605 71.3184967 -7.24357605 71.3184967 -8.625 69.4375 C-8.9992218 66.5466156 -8.9992218 66.5466156 -8.99731445 62.97827148 C-9.00279045 62.0021994 -9.00279045 62.0021994 -9.00837708 61.00640869 C-9.01647916 58.85687106 -9.00287777 56.70808804 -8.98828125 54.55859375 C-8.98776266 53.06551616 -8.98828032 51.57243788 -8.98979187 50.07936096 C-8.98970217 46.95132241 -8.9792757 43.8235417 -8.96118164 40.69555664 C-8.93847471 36.68141855 -8.93795403 32.66765661 -8.94469929 28.65347195 C-8.94803657 25.57115827 -8.9414141 22.48893073 -8.93157005 19.40663338 C-8.92771506 17.92622389 -8.92657107 16.44580482 -8.9281559 14.96539116 C-8.92852576 12.89918543 -8.91593012 10.83346672 -8.8996582 8.76733398 C-8.89505081 7.59057602 -8.89044342 6.41381805 -8.88569641 5.20140076 C-8.35338818 -0.44212576 -4.84726611 0.08822647 0 0 Z " fill="#FDFDFE" transform="translate(621.625,96.5625)"/>
<path d="M0 0 C1.15846436 -0.0151062 1.15846436 -0.0151062 2.34033203 -0.03051758 C7.2086918 0.04346806 10.59291192 0.78119305 14.8125 3.4375 C18.22781223 7.22203518 19.91660707 9.6428537 20.01782227 14.70361328 C20.0477401 16.02475632 20.0477401 16.02475632 20.07826233 17.37258911 C20.09497482 18.32471283 20.11168732 19.27683655 20.12890625 20.2578125 C20.14968735 21.23160858 20.17046844 22.20540466 20.19187927 23.20870972 C20.25738598 26.32656647 20.31626497 29.44450903 20.375 32.5625 C20.41818415 34.67318604 20.4617984 36.78386333 20.50585938 38.89453125 C20.61306847 44.0754295 20.71483278 49.25641356 20.8125 54.4375 C22.7925 53.7775 24.7725 53.1175 26.8125 52.4375 C26.1875 54.3125 26.1875 54.3125 24.8125 56.4375 C20.08715115 58.68766612 15.93651353 58.84416774 10.8125 58.4375 C7.68099164 57.07597463 6.25426201 56.17377001 4.5 53.25 C4.273125 52.651875 4.04625 52.05375 3.8125 51.4375 C2.925625 52.22125 2.03875 53.005 1.125 53.8125 C-3.377097 57.51702271 -7.1615661 58.92311249 -13.12890625 58.75390625 C-17.72999053 58.04671872 -21.04542729 55.72693693 -24.125 52.25 C-26.09843397 47.02620421 -25.97045851 42.43404421 -23.9375 37.25 C-17.68630615 30.85673356 -8.59404255 28.02169254 -0.26953125 25.19921875 C1.77257794 24.6177925 1.77257794 24.6177925 2.8125 23.4375 C2.96604338 20.63238047 3.04415776 17.86886329 3.0625 15.0625 C3.083125 14.28132813 3.10375 13.50015625 3.125 12.6953125 C3.28583089 8.4041856 3.28583089 8.4041856 1.42895508 4.70947266 C-0.720009 3.01847389 -2.04704046 3.09844038 -4.75 3.1875 C-5.53503906 3.20296875 -6.32007813 3.2184375 -7.12890625 3.234375 C-9.25000961 3.31991141 -9.25000961 3.31991141 -11.1875 4.4375 C-10.3625 5.118125 -9.5375 5.79875 -8.6875 6.5 C-6.1875 9.4375 -6.1875 9.4375 -5.625 13 C-6.1875 16.4375 -6.1875 16.4375 -7.75 18.8125 C-10.97373262 20.96165508 -13.32850853 21.36858944 -17.1875 21.4375 C-19.5625 20.5625 -19.5625 20.5625 -21.1875 18.4375 C-22.46809755 14.11340438 -22.81619274 10.72346242 -20.8125 6.625 C-14.26318035 1.16723362 -8.37082062 0.07182715 0 0 Z " fill="#1F41DF" transform="translate(1005.1875,113.5625)"/>
<path d="M0 0 C0.77214844 -0.00708984 1.54429687 -0.01417969 2.33984375 -0.02148438 C8.35812068 0.04515753 12.54493848 1.42231165 17.1875 5.4375 C19.7210378 8.44021147 20.00432967 11.02836492 20.08032227 14.81713867 C20.1102401 16.13816841 20.1102401 16.13816841 20.14076233 17.48588562 C20.15747482 18.43284805 20.17418732 19.37981049 20.19140625 20.35546875 C20.21218735 21.32784988 20.23296844 22.30023102 20.25437927 23.30207825 C20.31978748 26.40964665 20.37871929 29.51729985 20.4375 32.625 C20.48069351 34.73112858 20.52430807 36.83724856 20.56835938 38.94335938 C20.67545999 44.10798591 20.77675219 49.27269778 20.875 54.4375 C22.855 53.7775 24.835 53.1175 26.875 52.4375 C26.875 53.4275 26.875 54.4175 26.875 55.4375 C21.65972878 58.73135551 16.88995459 59.36133276 10.875 58.4375 C7.48011578 56.38642412 6.07176919 54.73265379 3.875 51.4375 C3.17375 52.22125 2.4725 53.005 1.75 53.8125 C-2.72763298 57.90077359 -7.23236734 58.91670049 -13.16796875 58.7578125 C-17.29229005 58.08277388 -19.97897512 55.50448868 -22.9375 52.75 C-24.8306605 49.06331902 -25.30681044 45.56319843 -25.125 41.4375 C-23.29059213 35.74118082 -20.82387865 33.98318372 -15.5625 31.25 C-10.57938595 28.95715611 -5.51173233 27.01746373 -0.3046875 25.296875 C2.03742694 24.54071803 2.03742694 24.54071803 3.875 22.4375 C4.19596987 19.21767614 4.19596987 19.21767614 4.125 15.5625 C4.13015625 14.32757813 4.1353125 13.09265625 4.140625 11.8203125 C3.89568026 8.70086913 3.62273782 6.98525865 1.875 4.4375 C-0.76958379 3.11520811 -2.80261301 3.34072806 -5.75 3.375 C-7.25433594 3.38853516 -7.25433594 3.38853516 -8.7890625 3.40234375 C-9.55992187 3.41394531 -10.33078125 3.42554687 -11.125 3.4375 C-10.3 4.2625 -9.475 5.0875 -8.625 5.9375 C-6.52659373 8.46757841 -5.68509381 10.26783014 -5.5 13.5625 C-6.125 17.4375 -6.125 17.4375 -8.25 19.9375 C-11.61537356 21.69334708 -13.38515491 22.07406938 -17.125 21.4375 C-20.39565449 18.78561798 -21.94124022 16.81569831 -22.5 12.625 C-21.98619886 8.25769035 -20.54384671 7.14408698 -17.125 4.4375 C-11.43681569 0.83218783 -6.67369839 -0.174439 0 0 Z " fill="#1E40DF" transform="translate(818.125,113.5625)"/>
<path d="M0 0 C0.77214844 -0.00708984 1.54429687 -0.01417969 2.33984375 -0.02148438 C8.35812068 0.04515753 12.54493848 1.42231165 17.1875 5.4375 C19.7210378 8.44021147 20.00432967 11.02836492 20.08032227 14.81713867 C20.1102401 16.13816841 20.1102401 16.13816841 20.14076233 17.48588562 C20.15747482 18.43284805 20.17418732 19.37981049 20.19140625 20.35546875 C20.21218735 21.32784988 20.23296844 22.30023102 20.25437927 23.30207825 C20.31978748 26.40964665 20.37871929 29.51729985 20.4375 32.625 C20.48069351 34.73112858 20.52430807 36.83724856 20.56835938 38.94335938 C20.67545999 44.10798591 20.77675219 49.27269778 20.875 54.4375 C22.855 53.7775 24.835 53.1175 26.875 52.4375 C26.875 53.4275 26.875 54.4175 26.875 55.4375 C21.65972878 58.73135551 16.88995459 59.36133276 10.875 58.4375 C7.48011578 56.38642412 6.07176919 54.73265379 3.875 51.4375 C3.17375 52.22125 2.4725 53.005 1.75 53.8125 C-2.72763298 57.90077359 -7.23236734 58.91670049 -13.16796875 58.7578125 C-17.29229005 58.08277388 -19.97897512 55.50448868 -22.9375 52.75 C-24.8306605 49.06331902 -25.30681044 45.56319843 -25.125 41.4375 C-23.29059213 35.74118082 -20.82387865 33.98318372 -15.5625 31.25 C-10.57938595 28.95715611 -5.51173233 27.01746373 -0.3046875 25.296875 C2.03742694 24.54071803 2.03742694 24.54071803 3.875 22.4375 C4.19596987 19.21767614 4.19596987 19.21767614 4.125 15.5625 C4.13015625 14.32757813 4.1353125 13.09265625 4.140625 11.8203125 C3.89568026 8.70086913 3.62273782 6.98525865 1.875 4.4375 C-0.76958379 3.11520811 -2.80261301 3.34072806 -5.75 3.375 C-7.25433594 3.38853516 -7.25433594 3.38853516 -8.7890625 3.40234375 C-9.55992187 3.41394531 -10.33078125 3.42554687 -11.125 3.4375 C-10.3 4.2625 -9.475 5.0875 -8.625 5.9375 C-6.52659373 8.46757841 -5.68509381 10.26783014 -5.5 13.5625 C-6.125 17.4375 -6.125 17.4375 -8.25 19.9375 C-11.61537356 21.69334708 -13.38515491 22.07406938 -17.125 21.4375 C-20.39565449 18.78561798 -21.94124022 16.81569831 -22.5 12.625 C-21.98619886 8.25769035 -20.54384671 7.14408698 -17.125 4.4375 C-11.43681569 0.83218783 -6.67369839 -0.174439 0 0 Z " fill="#1E40DF" transform="translate(427.125,113.5625)"/>
<path d="M0 0 C0.01213028 0.90748993 0.01213028 0.90748993 0.02450562 1.83331299 C0.11053259 8.12753396 0.21003556 14.42143932 0.31738281 20.71533203 C0.35567666 23.06456199 0.39052879 25.41385066 0.421875 27.76318359 C0.46751627 31.13921094 0.52551299 34.51483391 0.5859375 37.890625 C0.59748871 38.94179504 0.60903992 39.99296509 0.62094116 41.07598877 C0.64081085 42.05670349 0.66068054 43.03741821 0.68115234 44.04785156 C0.69447601 44.90944885 0.70779968 45.77104614 0.7215271 46.65875244 C1.01997681 49.16795404 1.7403406 50.82725914 3 53 C6.73210035 53.34717213 8.54070458 53.2922789 11.75 51.25 C15.65715928 47.34284072 16.22992919 44.54239258 16.27789307 38.98252869 C16.2738446 38.20325516 16.26979614 37.42398163 16.265625 36.62109375 C16.26753845 35.8126149 16.2694519 35.00413605 16.27142334 34.17115784 C16.2727818 32.46574593 16.26910905 30.76032356 16.26074219 29.05493164 C16.25002375 26.44328653 16.26065591 23.83232709 16.2734375 21.22070312 C16.27211612 19.56249848 16.26955416 17.90429426 16.265625 16.24609375 C16.26967346 15.46479599 16.27372192 14.68349823 16.27789307 13.87852478 C16.24477745 10.05639498 16.17084499 8.25626748 14 5 C11.94074861 4.27617533 11.94074861 4.27617533 10 4 C10 3.01 10 2.02 10 1 C17.26 0.67 24.52 0.34 32 0 C32.04898438 3.40699219 32.09796875 6.81398438 32.1484375 10.32421875 C32.20246135 13.6272416 32.2597634 16.93019245 32.31738281 20.2331543 C32.35564405 22.52704496 32.39050189 24.82099503 32.421875 27.11499023 C32.46758706 30.4141156 32.52557222 33.71283296 32.5859375 37.01171875 C32.59748871 38.03585373 32.60903992 39.05998871 32.62094116 40.11515808 C32.64081085 41.07577652 32.66068054 42.03639496 32.68115234 43.02612305 C32.69447601 43.86773483 32.70779968 44.70934662 32.7215271 45.57646179 C33.04108858 48.35759222 33.76987692 50.48957675 35 53 C37.01735205 54.34410262 37.01735205 54.34410262 39 55 C39 55.66 39 56.32 39 57 C31.74 57.33 24.48 57.66 17 58 C16.505 54.535 16.505 54.535 16 51 C15.52949219 51.42152344 15.05898438 51.84304687 14.57421875 52.27734375 C13.95160156 52.82519531 13.32898438 53.37304688 12.6875 53.9375 C12.07261719 54.48277344 11.45773437 55.02804688 10.82421875 55.58984375 C5.69355639 59.55594463 -1.88616294 58.61068177 -8 58 C-11.15116157 56.74291765 -11.84567809 55.81258694 -14 53 C-15.96092079 47.53642462 -16.31948905 42.58010789 -16.37890625 36.85546875 C-16.40439796 35.57897209 -16.40439796 35.57897209 -16.43040466 34.27668762 C-16.48318084 31.58036547 -16.52369889 28.88405654 -16.5625 26.1875 C-16.60646172 23.47316394 -16.65311073 20.75894455 -16.70530701 18.04475403 C-16.73721819 16.36099597 -16.76412258 14.6771341 -16.78553772 12.99320984 C-16.75681422 8.86366348 -16.75681422 8.86366348 -18 5 C-20.52733235 4.34444881 -20.52733235 4.34444881 -23 4 C-23 3.01 -23 2.02 -23 1 C-19.72922836 0.83210783 -16.45837336 0.66589762 -13.1875 0.5 C-12.25873047 0.45230469 -11.32996094 0.40460938 -10.37304688 0.35546875 C-9.0340332 0.28779297 -9.0340332 0.28779297 -7.66796875 0.21875 C-6.84578857 0.17685547 -6.0236084 0.13496094 -5.17651367 0.09179688 C-3.45227071 0.01907502 -1.72577585 0 0 0 Z " fill="#1E41DF" transform="translate(358,114)"/>
<path d="M0 0 C0.33 2.64 0.66 5.28 1 8 C1.53625 7.236875 2.0725 6.47375 2.625 5.6875 C6.10481049 1.74981971 8.76702485 0.20765247 14.06640625 -0.28515625 C25.46113823 -0.58331192 25.46113823 -0.58331192 30 3 C33.29845643 8.14867656 33.45409876 12.53475292 33.4765625 18.44921875 C33.49214203 19.34365189 33.50772156 20.23808502 33.52377319 21.15962219 C33.57109766 24.00223984 33.59899579 26.84461431 33.625 29.6875 C33.66153001 32.54092613 33.70215455 35.39421564 33.74765015 38.24751282 C33.77480744 40.01923099 33.7961887 41.79104917 33.81118774 43.56291199 C33.82144989 44.36417007 33.83171204 45.16542816 33.84228516 45.9909668 C33.84878082 46.69456833 33.85527649 47.39816986 33.86196899 48.12309265 C33.93946666 50.22806026 33.93946666 50.22806026 35 53 C37.50447516 54.21869929 37.50447516 54.21869929 40 55 C40 55.66 40 56.32 40 57 C30.76 57 21.52 57 12 57 C12 56.34 12 55.68 12 55 C12.639375 54.731875 13.27875 54.46375 13.9375 54.1875 C16.33131686 53.11332248 16.33131686 53.11332248 17 50 C17.09513303 48.65026825 17.13802647 47.29642024 17.14526367 45.94335938 C17.15164352 45.13241821 17.15802338 44.32147705 17.16459656 43.48596191 C17.16570938 42.61403198 17.1668222 41.74210205 17.16796875 40.84375 C17.17129715 39.94507202 17.17462555 39.04639404 17.17805481 38.1204834 C17.1831164 36.22078971 17.18546337 34.32108714 17.18530273 32.42138672 C17.18749154 29.51124502 17.20566165 26.60148099 17.22460938 23.69140625 C17.22754295 21.84635547 17.22952799 20.00130288 17.23046875 18.15625 C17.23765427 17.28432007 17.24483978 16.41239014 17.25224304 15.51403809 C17.2476281 14.29762634 17.2476281 14.29762634 17.24291992 13.05664062 C17.24434494 12.34399048 17.24576996 11.63134033 17.24723816 10.89709473 C17.09921099 8.66941833 17.09921099 8.66941833 15 6 C11.91618795 5.59556563 9.96082771 5.37607079 7 6 C4.30894802 8.17574416 2.54467072 9.91065856 1 13 C0.88882097 15.72472711 0.83588754 18.42310663 0.83203125 21.1484375 C0.82870285 21.95737457 0.82537445 22.76631165 0.82194519 23.59976196 C0.81687814 25.31292146 0.8145368 27.02609083 0.81469727 28.73925781 C0.81251452 31.35758808 0.79436706 33.97549453 0.77539062 36.59375 C0.7724559 38.25781106 0.77047163 39.92187412 0.76953125 41.5859375 C0.76234573 42.36834808 0.75516022 43.15075867 0.74775696 43.95687866 C0.70714666 49.32177991 0.70714666 49.32177991 3 54 C4.485 54.495 4.485 54.495 6 55 C6 55.66 6 56.32 6 57 C-3.24 57 -12.48 57 -22 57 C-22 56.34 -22 55.68 -22 55 C-21.195625 54.71125 -20.39125 54.4225 -19.5625 54.125 C-16.8673532 53.26737432 -16.8673532 53.26737432 -16 51 C-15.90092244 49.6271489 -15.86172803 48.24969489 -15.85473633 46.87329102 C-15.84835648 46.02223282 -15.84197662 45.17117462 -15.83540344 44.29432678 C-15.83429062 43.37348801 -15.8331778 42.45264923 -15.83203125 41.50390625 C-15.82870285 40.55942123 -15.82537445 39.61493622 -15.82194519 38.64183044 C-15.81687706 36.64200325 -15.81453683 34.64216759 -15.81469727 32.64233398 C-15.81251139 29.57847192 -15.79435617 26.51497016 -15.77539062 23.45117188 C-15.7724566 21.5104179 -15.77047186 19.56966221 -15.76953125 17.62890625 C-15.76234573 16.71009171 -15.75516022 15.79127716 -15.74775696 14.84461975 C-15.75083359 13.99040939 -15.75391022 13.13619904 -15.75708008 12.25610352 C-15.75565506 11.50490738 -15.75423004 10.75371124 -15.75276184 9.97975159 C-15.89001734 7.68038138 -15.89001734 7.68038138 -18 5 C-20.05925139 4.27617533 -20.05925139 4.27617533 -22 4 C-22 3.01 -22 2.02 -22 1 C-18.89590179 0.83204189 -15.79171114 0.66585677 -12.6875 0.5 C-11.80642578 0.45230469 -10.92535156 0.40460938 -10.01757812 0.35546875 C-8.74624023 0.28779297 -8.74624023 0.28779297 -7.44921875 0.21875 C-6.66893311 0.17685547 -5.88864746 0.13496094 -5.0847168 0.09179688 C-3.39117604 0.01722476 -1.69518179 0 0 0 Z " fill="#1C3FDF" transform="translate(871,114)"/>
<path d="M0 0 C4.29818392 3.32217709 6.91871637 7.94399095 8.375 13.125 C8.375 16.095 8.375 19.065 8.375 22.125 C-1.525 22.125 -11.425 22.125 -21.625 22.125 C-21.04100658 36.33653676 -21.04100658 36.33653676 -13.3125 46.1875 C-9.55781468 47.49727395 -6.3715377 47.21743467 -2.625 46.125 C1.0844303 44.06420539 3.01880056 42.65929917 5.375 39.125 C6.365 39.125 7.355 39.125 8.375 39.125 C6.85390189 45.88543605 2.53995434 50.70993031 -2.8671875 54.8359375 C-6.40726137 56.49064625 -9.6036031 56.6198427 -13.4375 56.5625 C-14.50653564 56.54896484 -14.50653564 56.54896484 -15.59716797 56.53515625 C-22.33382366 56.31311953 -26.60786978 55.19761768 -31.32421875 50.39453125 C-38.76573377 41.36741497 -39.70180435 31.55109057 -38.625 20.125 C-36.90590266 12.55542623 -34.01493466 6.32386711 -27.609375 1.65625 C-19.61351391 -3.10949502 -8.45785863 -4.48522806 0 0 Z " fill="#2345E0" transform="translate(546.625,115.875)"/>
<path d="M0 0 C0.00364563 0.95577942 0.00729126 1.91155884 0.01104736 2.89630127 C0.04798099 11.90153901 0.10573552 20.90643427 0.18390274 29.91141129 C0.22342017 34.54105299 0.25558761 39.17050327 0.27099609 43.80029297 C0.28613474 48.26794084 0.32053011 52.73506262 0.36830902 57.2024765 C0.38315175 58.90726907 0.39104267 60.61213674 0.39188385 62.31699371 C0.39424667 64.7044134 0.42126831 67.09037104 0.45410156 69.47753906 C0.4490712 70.18316483 0.44404083 70.88879059 0.43885803 71.61579895 C0.51099248 75.00345502 0.77619268 76.71774905 2.90911865 79.40765381 C4.90470163 81.02990233 4.90470163 81.02990233 7 82 C7 82.66 7 83.32 7 84 C-3.89 84.495 -3.89 84.495 -15 85 C-15.69391215 77.11075267 -16.0766337 69.37321339 -15.9921875 61.4609375 C-15.98431213 60.63934143 -15.97643677 59.81774536 -15.96832275 58.97125244 C-15.93190968 55.56997417 -15.88912825 52.16900779 -15.82861328 48.76806641 C-15.7863834 46.24898299 -15.76290528 43.7302769 -15.7421875 41.2109375 C-15.71425613 40.06097794 -15.71425613 40.06097794 -15.6857605 38.88778687 C-15.66963059 35.54767404 -15.76940518 33.38224525 -17.51611328 30.48681641 C-18.0057959 29.99616699 -18.49547852 29.50551758 -19 29 C-17.68 29.33 -16.36 29.66 -15 30 C-15.13910487 26.41637224 -15.28745413 22.83318502 -15.4375 19.25 C-15.47681641 18.23421875 -15.51613281 17.2184375 -15.55664062 16.171875 C-15.59853516 15.1921875 -15.64042969 14.2125 -15.68359375 13.203125 C-15.72025146 12.30239258 -15.75690918 11.40166016 -15.79467773 10.47363281 C-15.98306407 8.20403661 -16.37366501 6.18437113 -17 4 C-18.65 3.67 -20.3 3.34 -22 3 C-22 2.34 -22 1.68 -22 1 C-19.27093526 0.83150207 -16.54176829 0.6651397 -13.8125 0.5 C-13.04357422 0.45230469 -12.27464844 0.40460938 -11.48242188 0.35546875 C-10.73154297 0.31035156 -9.98066406 0.26523438 -9.20703125 0.21875 C-8.17799683 0.1559082 -8.17799683 0.1559082 -7.12817383 0.09179688 C-4.75000166 -0.01078345 -2.38013621 -0.00576917 0 0 Z " fill="#1B3EDF" transform="translate(968,87)"/>
<path d="M0 0 C0.33 2.31 0.66 4.62 1 7 C1.46148438 6.4946875 1.92296875 5.989375 2.3984375 5.46875 C6.10510642 1.77673195 8.82360697 -0.52482908 14.1875 -0.75 C17.68255602 -0.4645794 19.05485305 0.03400889 22.125 1.9375 C24.644695 6.05300183 25.05542455 9.29314699 24 14 C21.56887157 17.50368509 20.17862962 18.75445216 16 19.625 C11.9256644 18.77618008 10.45594125 17.32274404 8 14 C7.4375 10.9375 7.4375 10.9375 8 8 C10 5.625 10 5.625 12 4 C9.34303932 4.15182632 7.55765476 4.47324024 5.58984375 6.33203125 C1.33174005 11.43430711 0.85018017 14.51453873 0.8671875 20.96484375 C0.86623077 21.75395645 0.86527405 22.54306915 0.86428833 23.35609436 C0.86360734 25.02637817 0.86545602 26.69666462 0.86962891 28.36694336 C0.87497122 30.92372596 0.86968489 33.48033231 0.86328125 36.03710938 C0.86394219 37.65885455 0.86522367 39.28059962 0.8671875 40.90234375 C0.86516327 41.66804184 0.86313904 42.43373993 0.86105347 43.22264099 C0.8751395 46.41357733 0.98347862 48.95043585 2 52 C3.8653245 53.01754868 3.8653245 53.01754868 6.0625 53.6875 C7.16271484 54.06455078 7.16271484 54.06455078 8.28515625 54.44921875 C8.85105469 54.63097656 9.41695312 54.81273437 10 55 C10 55.66 10 56.32 10 57 C-0.56 57 -11.12 57 -22 57 C-22 56.34 -22 55.68 -22 55 C-21.1857959 54.67136963 -20.3715918 54.34273926 -19.53271484 54.00415039 C-16.85227988 52.31342429 -16.85227988 52.31342429 -16.54620361 50.00656128 C-16.40290049 47.30372951 -16.41283328 44.63959404 -16.4765625 41.93359375 C-16.4836171 40.448843 -16.4836171 40.448843 -16.49081421 38.93409729 C-16.51219156 35.76786173 -16.56883238 32.60328955 -16.625 29.4375 C-16.64150217 27.30014592 -16.65585151 25.16277406 -16.66796875 23.02539062 C-16.70196808 19.12014584 -16.73674164 15.21507467 -16.80712891 11.31030273 C-16.81998932 10.52437241 -16.83284973 9.73844208 -16.84609985 8.92869568 C-16.88543017 6.91692969 -16.88543017 6.91692969 -18 5 C-19.64363134 4.27840576 -21.31050386 3.60648579 -23 3 C-23 2.34 -23 1.68 -23 1 C-19.72922836 0.83210783 -16.45837336 0.66589762 -13.1875 0.5 C-12.25873047 0.45230469 -11.32996094 0.40460938 -10.37304688 0.35546875 C-9.0340332 0.28779297 -9.0340332 0.28779297 -7.66796875 0.21875 C-6.84578857 0.17685547 -6.0236084 0.13496094 -5.17651367 0.09179688 C-3.45227071 0.01907502 -1.72577585 0 0 0 Z " fill="#2344E0" transform="translate(1058,114)"/>
<path d="M0 0 C0.33 2.64 0.66 5.28 1 8 C1.7425 7.05125 2.485 6.1025 3.25 5.125 C5.7537272 1.92579303 8.11872259 0.28942729 12.18359375 -0.3359375 C16.28583452 -0.40703353 18.43361845 -0.35398847 22 1.875 C24.97391304 5.03478261 24.97391304 5.03478261 25.0546875 8.0234375 C24.74113825 12.12684296 24.54685441 14.35939912 21.8125 17.5625 C18.50257521 19.25423934 16.66861766 19.54638986 13 19 C10.625 18.0625 10.625 18.0625 9 16 C8.49213331 12.93568076 8.38670225 10.04991311 9 7 C10.52734375 5.21875 10.52734375 5.21875 12 4 C8.07668566 4.22418939 7.03871912 4.95952092 4.25 7.875 C0.87986136 12.55574811 0.85193154 16.24992212 0.8671875 21.80859375 C0.86623077 22.57172379 0.86527405 23.33485382 0.86428833 24.12110901 C0.86360826 25.73414187 0.86545049 27.34717748 0.86962891 28.96020508 C0.87497226 31.42470479 0.86968189 33.88902164 0.86328125 36.35351562 C0.86394221 37.9218754 0.86522373 39.49023506 0.8671875 41.05859375 C0.86516327 41.79411972 0.86313904 42.52964569 0.86105347 43.28746033 C0.87694447 46.7696964 1.14785836 49.59143344 2 53 C4.64 53.66 7.28 54.32 10 55 C10 55.66 10 56.32 10 57 C-0.56 57 -11.12 57 -22 57 C-22 56.34 -22 55.68 -22 55 C-21.195625 54.71125 -20.39125 54.4225 -19.5625 54.125 C-16.8673532 53.26737432 -16.8673532 53.26737432 -16 51 C-15.90092244 49.6271489 -15.86172803 48.24969489 -15.85473633 46.87329102 C-15.84835648 46.02223282 -15.84197662 45.17117462 -15.83540344 44.29432678 C-15.83429062 43.37348801 -15.8331778 42.45264923 -15.83203125 41.50390625 C-15.82870285 40.55942123 -15.82537445 39.61493622 -15.82194519 38.64183044 C-15.81687706 36.64200325 -15.81453683 34.64216759 -15.81469727 32.64233398 C-15.81251139 29.57847192 -15.79435617 26.51497016 -15.77539062 23.45117188 C-15.7724566 21.5104179 -15.77047186 19.56966221 -15.76953125 17.62890625 C-15.76234573 16.71009171 -15.75516022 15.79127716 -15.74775696 14.84461975 C-15.75083359 13.99040939 -15.75391022 13.13619904 -15.75708008 12.25610352 C-15.75565506 11.50490738 -15.75423004 10.75371124 -15.75276184 9.97975159 C-15.89001734 7.68038138 -15.89001734 7.68038138 -18 5 C-20.05925139 4.27617533 -20.05925139 4.27617533 -22 4 C-22 3.01 -22 2.02 -22 1 C-18.89590179 0.83204189 -15.79171114 0.66585677 -12.6875 0.5 C-11.80642578 0.45230469 -10.92535156 0.40460938 -10.01757812 0.35546875 C-8.74624023 0.28779297 -8.74624023 0.28779297 -7.44921875 0.21875 C-6.66893311 0.17685547 -5.88864746 0.13496094 -5.0847168 0.09179688 C-3.39117604 0.01722476 -1.69518179 0 0 0 Z " fill="#1E40DF" transform="translate(480,114)"/>
<path d="M0 0 C5.89917201 2.49580354 11.81222967 5.56146763 15.4375 11.03125 C16.44705017 14.32621042 16.63646158 17.40986191 16.625 20.84375 C16.62560425 22.0800415 16.62560425 22.0800415 16.6262207 23.34130859 C16.42923959 26.58077359 16.21097959 29.05458066 14.15869141 31.64599609 C9.17441505 35.94995416 5.17163445 37.45652506 -1.2578125 37.27734375 C-7.28292278 36.63398452 -11.2684687 33.76991774 -15.3984375 29.62890625 C-16.78736016 27.7226332 -17.14003081 26.3506887 -17.5625 24.03125 C-17.76875 23.09152344 -17.975 22.15179688 -18.1875 21.18359375 C-18.63447706 17.35169664 -18.64390317 14.75979453 -17.5625 11.03125 C-13.58830143 6.2091112 -6.48187611 0.07904727 0 0 Z " fill="#395AE9" transform="translate(157.5625,82.96875)"/>
<path d="M0 0 C3.1875 0.375 3.1875 0.375 5.375 2.25 C10.10039227 10.39722805 10.6629848 18.68731604 10.5625 27.9375 C10.57410156 29.00935547 10.58570313 30.08121094 10.59765625 31.18554688 C10.56856706 39.11235096 9.43456454 45.57823578 5.375 52.4375 C3.1875 54.375 3.1875 54.375 0.1875 54.9375 C-3.61437651 54.22464815 -4.57795279 53.53418744 -6.8125 50.375 C-9.96299118 43.48096199 -10.24268843 36.91777656 -10.125 29.4375 C-10.12822266 28.41720703 -10.13144531 27.39691406 -10.13476562 26.34570312 C-9.95914598 1.32788613 -9.95914598 1.32788613 0 0 Z " fill="#FBFCFE" transform="translate(697.8125,115.625)"/>
<path d="M0 0 C2.68164062 1.00878906 2.68164062 1.00878906 5 3 C5.49289538 5.97849638 5.65525281 8.38177782 5.59375 11.359375 C5.59379028 12.18197815 5.59383057 13.0045813 5.59387207 13.85211182 C5.58851041 15.59386829 5.57089983 17.33562362 5.54199219 19.07714844 C5.50036644 21.72667561 5.50090428 24.37364051 5.5078125 27.0234375 C5.49731113 28.71876748 5.48436794 30.41408444 5.46875 32.109375 C5.46854858 32.89503845 5.46834717 33.6807019 5.46813965 34.49017334 C5.34294092 40.39590823 4.36981485 45.46674964 0.1875 49.9375 C-2.8800069 51.42743192 -4.63031988 51.61892084 -8 51 C-13.11262814 46.35215624 -14.65712198 41.27001788 -15.20458984 34.45214844 C-15.30379247 31.67346788 -15.32206106 28.9053556 -15.3125 26.125 C-15.32861328 25.19558594 -15.34472656 24.26617187 -15.36132812 23.30859375 C-15.3667459 15.53949856 -14.3679786 8.28885916 -9.75 1.875 C-6.18425015 -0.55619308 -4.24066511 -0.6058093 0 0 Z " fill="#F9F9FE" transform="translate(948,117)"/>
<path d="M0 0 C0.05827558 3.5624308 0.09368885 7.12473819 0.125 10.6875 C0.14175781 11.69490234 0.15851562 12.70230469 0.17578125 13.74023438 C0.18222656 14.71669922 0.18867187 15.69316406 0.1953125 16.69921875 C0.20578613 17.59471436 0.21625977 18.49020996 0.22705078 19.4128418 C-0.1444886 23.64639323 -1.22415378 26.26609141 -4.3125 29.1875 C-9.34525677 32.5816848 -13.8941724 33.93846686 -20 33 C-23.63922067 31.66151924 -26.35060414 29.73318888 -28.9375 26.8125 C-30.91093397 21.58870421 -30.78295851 16.99654421 -28.75 11.8125 C-23.10411336 6.03829775 -8.15533266 -2.71844422 0 0 Z " fill="#2748E0" transform="translate(1010,139)"/>
<path d="M0 0 C0.02905924 3.7499837 0.04681874 7.49993837 0.0625 11.25 C0.07087891 12.31347656 0.07925781 13.37695312 0.08789062 14.47265625 C0.09272461 16.00986328 0.09272461 16.00986328 0.09765625 17.578125 C0.10551147 18.99206543 0.10551147 18.99206543 0.11352539 20.43457031 C-0.06794192 24.53534131 -0.52256212 26.42707455 -3.1875 29.625 C-7.71591574 33.44899551 -12.22496941 34.47605244 -18.04296875 34.3203125 C-22.16729005 33.64527388 -24.85397512 31.06698868 -27.8125 28.3125 C-29.7056605 24.62581902 -30.18181044 21.12569843 -30 17 C-28.16559213 11.30368082 -25.69887865 9.54568372 -20.4375 6.8125 C-5.53401475 0 -5.53401475 0 0 0 Z " fill="#2143E0" transform="translate(823,138)"/>
<path d="M0 0 C0.02905924 3.7499837 0.04681874 7.49993837 0.0625 11.25 C0.07087891 12.31347656 0.07925781 13.37695312 0.08789062 14.47265625 C0.09272461 16.00986328 0.09272461 16.00986328 0.09765625 17.578125 C0.10551147 18.99206543 0.10551147 18.99206543 0.11352539 20.43457031 C-0.06794192 24.53534131 -0.52256212 26.42707455 -3.1875 29.625 C-7.71591574 33.44899551 -12.22496941 34.47605244 -18.04296875 34.3203125 C-22.16729005 33.64527388 -24.85397512 31.06698868 -27.8125 28.3125 C-29.7056605 24.62581902 -30.18181044 21.12569843 -30 17 C-28.16559213 11.30368082 -25.69887865 9.54568372 -20.4375 6.8125 C-5.53401475 0 -5.53401475 0 0 0 Z " fill="#2143E0" transform="translate(432,138)"/>
<path d="M0 0 C24.42 0 48.84 0 74 0 C74 0.66 74 1.32 74 2 C73.34 2 72.68 2 72 2 C72 5.63 72 9.26 72 13 C71.34 13 70.68 13 70 13 C69 12 68 11 67 10 C64.90010348 8.82425289 64.90010348 8.82425289 63 8 C64.75 4.125 64.75 4.125 67 3 C65.35 2.67 63.7 2.34 62 2 C62 5.63 62 9.26 62 13 C61.34 13 60.68 13 60 13 C60 9.37 60 5.74 60 2 C57.36 2 54.72 2 52 2 C52 3.32 52 4.64 52 6 C53.65 5.34 55.3 4.68 57 4 C58.06546953 7.1964086 58.07427838 9.65747276 58 13 C57.34 13 56.68 13 56 13 C55.34 11.35 54.68 9.7 54 8 C52.02 8.99 52.02 8.99 50 10 C50 7.36 50 4.72 50 2 C49.34 2 48.68 2 48 2 C48 5.63 48 9.26 48 13 C47.34 13 46.68 13 46 13 C45.6596875 11.7934375 45.6596875 11.7934375 45.3125 10.5625 C44.879375 9.716875 44.44625 8.87125 44 8 C41.45224694 7.10613836 41.45224694 7.10613836 39 7 C39.33 6.01 39.66 5.02 40 4 C41.32 4 42.64 4 44 4 C44.33 3.34 44.66 2.68 45 2 C42.69 2 40.38 2 38 2 C38 5.63 38 9.26 38 13 C37.34 13 36.68 13 36 13 C36 9.37 36 5.74 36 2 C30.72 2 25.44 2 20 2 C20 5.63 20 9.26 20 13 C19.34 13 18.68 13 18 13 C18 9.37 18 5.74 18 2 C15.36 2 12.72 2 10 2 C10.33 2.99 10.66 3.98 11 5 C11.99 4.67 12.98 4.34 14 4 C15 5 15 5 15.09765625 6.84765625 C15.04882812 9.92382812 15.04882812 9.92382812 15 13 C14.34 12.67 13.68 12.34 13 12 C13 10.35 13 8.7 13 7 C10.525 8.485 10.525 8.485 8 10 C7 9 7 9 6.9375 5.4375 C6.958125 4.303125 6.97875 3.16875 7 2 C4.9375006 3.81222534 4.9375006 3.81222534 3 6 C3 6.99 3 7.98 3 9 C4.32 9.66 5.64 10.32 7 11 C7 11.66 7 12.32 7 13 C4.625 13.1875 4.625 13.1875 2 13 C-0.58702923 9.11945616 0.28056163 7.47650542 1 3 C0.67 2.01 0.34 1.02 0 0 Z " fill="#CFD6F6" transform="translate(119,175)"/>
<path d="M0 0 C15.51 0 31.02 0 47 0 C47 0.66 47 1.32 47 2 C46.34 2 45.68 2 45 2 C45 5.63 45 9.26 45 13 C44.01 12.34 43.02 11.68 42 11 C41.01 11.66 40.02 12.32 39 13 C38.87625 12.360625 38.7525 11.72125 38.625 11.0625 C38.41875 10.381875 38.2125 9.70125 38 9 C37.34 8.67 36.68 8.34 36 8 C37.75 4.125 37.75 4.125 40 3 C38.02 3 36.04 3 34 3 C33.34 5.31 32.68 7.62 32 10 C33.32 10 34.64 10 36 10 C36 10.99 36 11.98 36 13 C31.125 12.125 31.125 12.125 30 11 C29.76271186 4.47457627 29.76271186 4.47457627 31 2 C30.01 2 29.02 2 28 2 C28 5.63 28 9.26 28 13 C27.01 13 26.02 13 25 13 C25 9.37 25 5.74 25 2 C24.01 2 23.02 2 22 2 C22 5.63 22 9.26 22 13 C21.34 13 20.68 13 20 13 C19 12 18 11 17 10 C14.90010348 8.82425289 14.90010348 8.82425289 13 8 C13 7.01 13 6.02 13 5 C13.66 5 14.32 5 15 5 C15 4.01 15 3.02 15 2 C11.37 2 7.74 2 4 2 C4 3.32 4 4.64 4 6 C7.465 5.505 7.465 5.505 11 5 C11 7.64 11 10.28 11 13 C11.66 13.33 12.32 13.66 13 14 C13 14.66 13 15.32 13 16 C10.69 16 8.38 16 6 16 C6 14.68 6 13.36 6 12 C6.66 11.67 7.32 11.34 8 11 C8.65213292 8.97536745 8.65213292 8.97536745 9 7 C8.21625 7.495 7.4325 7.99 6.625 8.5 C4 10 4 10 2 10 C2 7.36 2 4.72 2 2 C1.34 2 0.68 2 0 2 C0 1.34 0 0.68 0 0 Z " fill="#D6DBF7" transform="translate(67,175)"/>
<path d="M0 0 C6.04249476 -0.62942654 10.26366197 -0.12219631 15.26953125 3.46484375 C19.05787131 6.82560592 20.82140162 9.79431001 21.234375 14.89453125 C21.2482539 17.59744782 21.13331666 20.30033757 21 23 C16.71 23 12.42 23 8 23 C7.89042969 21.89140625 7.78085937 20.7828125 7.66796875 19.640625 C7.50847238 18.17701127 7.34827951 16.71347333 7.1875 15.25 C7.11724609 14.52039063 7.04699219 13.79078125 6.97460938 13.0390625 C6.50539967 8.9100171 6.06077752 5.9347891 3 3 C2.01 2.67 1.02 2.34 0 2 C0 1.34 0 0.68 0 0 Z " fill="#2042DF" transform="translate(533,114)"/>
<path d="M0 0 C2.625 0.4375 2.625 0.4375 4.875 2.6875 C8.46803308 8.33369484 7.70278138 13.90386432 7.625 20.4375 C2.345 20.4375 -2.935 20.4375 -8.375 20.4375 C-8.77122498 13.30545031 -8.40562414 8.43930529 -4.375 2.4375 C-2.375 0.4375 -2.375 0.4375 0 0 Z " fill="#F5F6FD" transform="translate(533.375,115.5625)"/>
<path d="M0 0 C0.14533755 3.582906 0.23407931 7.16505417 0.3125 10.75 C0.3753418 12.27367187 0.3753418 12.27367187 0.43945312 13.828125 C0.56291005 21.33430603 0.56291005 21.33430603 -2.2890625 24.70703125 C-5.96145798 26.45856281 -8.13090454 26.09502702 -12 25 C-14.84634827 20.73047759 -14.86146621 17.00870179 -14 12 C-11.86554523 8.04252336 -4.8175096 0 0 0 Z " fill="#F4F6FD" transform="translate(823,139)"/>
<path d="M0 0 C0.14533755 3.582906 0.23407931 7.16505417 0.3125 10.75 C0.3753418 12.27367187 0.3753418 12.27367187 0.43945312 13.828125 C0.56291005 21.33430603 0.56291005 21.33430603 -2.2890625 24.70703125 C-5.96145798 26.45856281 -8.13090454 26.09502702 -12 25 C-14.84634827 20.73047759 -14.86146621 17.00870179 -14 12 C-11.86554523 8.04252336 -4.8175096 0 0 0 Z " fill="#F4F6FD" transform="translate(432,139)"/>
<path d="M0 0 C0.11601004 3.60389664 0.18718408 7.20731467 0.25 10.8125 C0.28351562 11.83666016 0.31703125 12.86082031 0.3515625 13.91601562 C0.36445312 14.89892578 0.37734375 15.88183594 0.390625 16.89453125 C0.41157227 17.80050049 0.43251953 18.70646973 0.45410156 19.63989258 C0 22 0 22 -1.83300781 23.7956543 C-4.75444914 25.41929896 -6.70846781 25.4201956 -10 25 C-12.30738849 23.32686996 -12.92577737 22.36133186 -13.50390625 19.546875 C-13.60751028 14.60150913 -13.61860277 10.98717421 -10.375 7.0625 C-3.22761418 0 -3.22761418 0 0 0 Z " fill="#F9FAFE" transform="translate(1009,140)"/>
<path d="M0 0 C16.17 0 32.34 0 49 0 C48.34 0.33 47.68 0.66 47 1 C47 4.63 47 8.26 47 12 C46.34 12 45.68 12 45 12 C44.6596875 10.7934375 44.6596875 10.7934375 44.3125 9.5625 C43.879375 8.716875 43.44625 7.87125 43 7 C40.45224694 6.10613836 40.45224694 6.10613836 38 6 C38.33 5.01 38.66 4.02 39 3 C40.32 3 41.64 3 43 3 C43.33 2.34 43.66 1.68 44 1 C41.69 1 39.38 1 37 1 C37 4.63 37 8.26 37 12 C36.34 12 35.68 12 35 12 C35 8.37 35 4.74 35 1 C29.72 1 24.44 1 19 1 C19 4.63 19 8.26 19 12 C18.34 12 17.68 12 17 12 C17 8.37 17 4.74 17 1 C14.36 1 11.72 1 9 1 C9.33 1.99 9.66 2.98 10 4 C10.99 3.67 11.98 3.34 13 3 C14 4 14 4 14.09765625 5.84765625 C14.04882812 8.92382812 14.04882812 8.92382812 14 12 C13.34 11.67 12.68 11.34 12 11 C12 9.35 12 7.7 12 6 C9.525 7.485 9.525 7.485 7 9 C6 8 6 8 5.9375 4.4375 C5.958125 3.303125 5.97875 2.16875 6 1 C3.9375006 2.81222534 3.9375006 2.81222534 2 5 C2 5.99 2 6.98 2 8 C3.32 8.66 4.64 9.32 6 10 C6 10.66 6 11.32 6 12 C3.625 12.1875 3.625 12.1875 1 12 C-1 9 -1 9 0 0 Z " fill="#F4F5FC" transform="translate(120,176)"/>
<path d="M0 0 C1.10865985 0.91122727 2.21172219 1.82926659 3.3125 2.75 C4.23482422 3.51570313 4.23482422 3.51570313 5.17578125 4.296875 C9.35860997 8.20204271 10.35361199 10.74601308 10.61914062 16.39453125 C10.64169922 17.17183594 10.66425781 17.94914062 10.6875 18.75 C10.73874023 19.93916016 10.73874023 19.93916016 10.79101562 21.15234375 C10.87319104 23.10107504 10.93828045 25.05051362 11 27 C7.80142689 24.53786812 4.99853985 22.06678631 2.375 19 C1.80523437 18.34 1.23546875 17.68 0.6484375 17 C0.10445312 16.34 -0.43953125 15.68 -1 15 C-1.5671875 14.31808594 -2.134375 13.63617188 -2.71875 12.93359375 C-4 11 -4 11 -3.875 8.0625 C-2.98747766 4.95617181 -1.80341308 2.66591499 0 0 Z " fill="#A3C2FA" transform="translate(130,83)"/>
<path d="M0 0 C8 0 8 0 11.0625 2 C13.34405207 5.53272578 13.46682795 7.17687443 12.6328125 11.1953125 C12 13 12 13 10.4375 15 C8 16 8 16 0 16 C0 10.72 0 5.44 0 0 Z " fill="#E8EBFA" transform="translate(55,150)"/>
<path d="M0 0 C15.51 0 31.02 0 47 0 C47 0.33 47 0.66 47 1 C38.09 1 29.18 1 20 1 C20 3.64 20 6.28 20 9 C17 10 17 10 14.8125 9.0625 C14.214375 8.711875 13.61625 8.36125 13 8 C13 7.01 13 6.02 13 5 C13.66 5 14.32 5 15 5 C15 4.01 15 3.02 15 2 C11.37 2 7.74 2 4 2 C4 3.32 4 4.64 4 6 C7.465 5.505 7.465 5.505 11 5 C11 7.64 11 10.28 11 13 C11.66 13.33 12.32 13.66 13 14 C13 14.66 13 15.32 13 16 C10.69 16 8.38 16 6 16 C6 14.68 6 13.36 6 12 C6.66 11.67 7.32 11.34 8 11 C8.65213292 8.97536745 8.65213292 8.97536745 9 7 C8.21625 7.495 7.4325 7.99 6.625 8.5 C4 10 4 10 2 10 C2 7.36 2 4.72 2 2 C1.34 2 0.68 2 0 2 C0 1.34 0 0.68 0 0 Z " fill="#D0D7F6" transform="translate(67,175)"/>
<path d="M0 0 C7 0 7 0 9.9375 1.5625 C12 4 12 4 12.625 7.4375 C11.83515672 11.9396067 10.72536415 13.38431879 7 16 C4.69 16 2.38 16 0 16 C0 10.72 0 5.44 0 0 Z " fill="#E7EBFA" transform="translate(116,150)"/>
<path d="M0 0 C0.99 0 1.98 0 3 0 C3 5.28 3 10.56 3 16 C0.36 16 -2.28 16 -5 16 C-7 14 -7 14 -7.25 10.5 C-7 7 -7 7 -5 5 C-2.375 4.875 -2.375 4.875 0 5 C0 3.35 0 1.7 0 0 Z " fill="#E3E7F9" transform="translate(181,150)"/>
<path d="M0 0 C3.3 0 6.6 0 10 0 C10 3.63 10 7.26 10 11 C6.7 10.67 3.4 10.34 0 10 C0 6.7 0 3.4 0 0 Z " fill="#B4C1F4" transform="translate(152,95)"/>
<path d="M0 0 C3 0.25 3 0.25 5 2.25 C5.25 5.75 5.25 5.75 5 9.25 C3 11.25 3 11.25 0 11.5625 C-0.99 11.459375 -1.98 11.35625 -3 11.25 C-5.30163882 7.79754176 -5.34490322 6.30261287 -5 2.25 C-3 0.25 -3 0.25 0 0 Z " fill="#E3E7F9" transform="translate(134,154.75)"/>
<path d="M0 0 C0.99 0 1.98 0 3 0 C3.33 2.31 3.66 4.62 4 7 C4.66 6.34 5.32 5.68 6 5 C6.99 5 7.98 5 9 5 C8.608125 5.70125 8.21625 6.4025 7.8125 7.125 C6.64653899 10.11533935 6.64653899 10.11533935 8.375 13.3125 C8.91125 14.199375 9.4475 15.08625 10 16 C8.68 16 7.36 16 6 16 C5.67 14.68 5.34 13.36 5 12 C4.34 12 3.68 12 3 12 C3 13.32 3 14.64 3 16 C2.01 16 1.02 16 0 16 C0 10.72 0 5.44 0 0 Z " fill="#E7EAFA" transform="translate(141,150)"/>
<path d="M0 0 C2.875 -0.125 2.875 -0.125 6 0 C8 2 8 2 8.1953125 4.1640625 C8.17210937 4.97617188 8.14890625 5.78828125 8.125 6.625 C8.10695312 7.44226563 8.08890625 8.25953125 8.0703125 9.1015625 C8.03550781 10.04128906 8.03550781 10.04128906 8 11 C0.25 11.125 0.25 11.125 -2 10 C-1.8125 7.625 -1.8125 7.625 -1 5 C1.5625 3.6875 1.5625 3.6875 4 3 C2.35 2.67 0.7 2.34 -1 2 C-0.67 1.34 -0.34 0.68 0 0 Z " fill="#E2E6F9" transform="translate(187,155)"/>
<path d="M0 0 C6.93359375 -0.09765625 6.93359375 -0.09765625 9 0 C10 1 10 1 10.09765625 3.28515625 C10.08605469 4.20167969 10.07445312 5.11820313 10.0625 6.0625 C10.05347656 6.98160156 10.04445312 7.90070313 10.03515625 8.84765625 C10.02355469 9.55792969 10.01195312 10.26820313 10 11 C9.01 11 8.02 11 7 11 C7 8.36 7 5.72 7 3 C6.01 3 5.02 3 4 3 C4 5.64 4 8.28 4 11 C2.68 11 1.36 11 0 11 C0 7.37 0 3.74 0 0 Z " fill="#C6CEF5" transform="translate(162,155)"/>
<path d="M0 0 C4.95 0 9.9 0 15 0 C14.01 0.495 14.01 0.495 13 1 C13 4.63 13 8.26 13 12 C12.01 11.34 11.02 10.68 10 10 C9.01 10.66 8.02 11.32 7 12 C6.87625 11.360625 6.7525 10.72125 6.625 10.0625 C6.41875 9.381875 6.2125 8.70125 6 8 C5.34 7.67 4.68 7.34 4 7 C5.75 3.125 5.75 3.125 8 2 C5.36 2 2.72 2 0 2 C0 1.34 0 0.68 0 0 Z " fill="#F8F9FD" transform="translate(99,176)"/>
<path d="M0 0 C0.99 0.103125 1.98 0.20625 3 0.3125 C5 3.3125 5 3.3125 5 6.3125 C2.69 6.3125 0.38 6.3125 -2 6.3125 C-2 6.9725 -2 7.6325 -2 8.3125 C-0.02 8.3125 1.96 8.3125 4 8.3125 C3.67 9.3025 3.34 10.2925 3 11.3125 C0.125 11.5 0.125 11.5 -3 11.3125 C-5.30163882 7.86004176 -5.34490322 6.36511287 -5 2.3125 C-3 0.3125 -3 0.3125 0 0 Z " fill="#E3E7F9" transform="translate(104,154.6875)"/>
<path d="M0 0 C2.33294775 -0.04241723 4.66702567 -0.04092937 7 0 C8 1 8 1 8.09765625 3.28515625 C8.08605469 4.20167969 8.07445313 5.11820313 8.0625 6.0625 C8.05347656 6.98160156 8.04445313 7.90070313 8.03515625 8.84765625 C8.02355469 9.55792969 8.01195313 10.26820313 8 11 C5.36 11 2.72 11 0 11 C-0.33 9.35 -0.66 7.7 -1 6 C2 4 2 4 5 4 C5 3.34 5 2.68 5 2 C3.35 2 1.7 2 0 2 C0 1.34 0 0.68 0 0 Z " fill="#E8ECFA" transform="translate(81,155)"/>
<path d="M0 0 C2.33294775 -0.04241723 4.66702567 -0.04092937 7 0 C8 1 8 1 8.09765625 3.28515625 C8.08605469 4.20167969 8.07445312 5.11820313 8.0625 6.0625 C8.05347656 6.98160156 8.04445312 7.90070313 8.03515625 8.84765625 C8.02355469 9.55792969 8.01195312 10.26820313 8 11 C5.36 11 2.72 11 0 11 C-0.33 9.35 -0.66 7.7 -1 6 C2 4 2 4 5 4 C5 3.34 5 2.68 5 2 C3.35 2 1.7 2 0 2 C0 1.34 0 0.68 0 0 Z " fill="#EBEEFA" transform="translate(152,155)"/>
<path d="M0 0 C0.99 0 1.98 0 3 0 C3.33 2.64 3.66 5.28 4 8 C4.66 8 5.32 8 6 8 C6.33 5.36 6.66 2.72 7 0 C7.99 0 8.98 0 10 0 C10 3.63 10 7.26 10 11 C3.9453125 11.1953125 3.9453125 11.1953125 2 11 C0 9 0 9 -0.1953125 6.8359375 C-0.17210938 6.02382812 -0.14890625 5.21171875 -0.125 4.375 C-0.10695313 3.55773437 -0.08890625 2.74046875 -0.0703125 1.8984375 C-0.04710938 1.27195313 -0.02390625 0.64546875 0 0 Z " fill="#E0E4F9" transform="translate(69,155)"/>
<path d="M0 0 C3.96 0 7.92 0 12 0 C11.01 0.495 11.01 0.495 10 1 C10 4.63 10 8.26 10 12 C9.34 12 8.68 12 8 12 C7 11 6 10 5 9 C2.90010348 7.82425289 2.90010348 7.82425289 1 7 C2.75 3.125 2.75 3.125 5 2 C3.35 1.67 1.7 1.34 0 1 C0 0.67 0 0.34 0 0 Z " fill="#F3F4FC" transform="translate(181,176)"/>
<path d="M0 0 C0.66 0.66 1.32 1.32 2 2 C1.625 4.625 1.625 4.625 1 7 C0.01 7 -0.98 7 -2 7 C-1.34 5.35 -0.68 3.7 0 2 C-0.99 2 -1.98 2 -3 2 C-3 4.64 -3 7.28 -3 10 C-5.64 8.35 -8.28 6.7 -11 5 C-8.11075587 -0.77848825 -6.19878728 -0.33207789 0 0 Z " fill="#DADFF7" transform="translate(151,178)"/>
<path d="M0 0 C1.65 0 3.3 0 5 0 C7 3 7 3 6.6875 6.125 C6 9 6 9 5 10 C3.35 10 1.7 10 0 10 C0 6.7 0 3.4 0 0 Z " fill="#435DE2" transform="translate(58,153)"/>
<path d="M0 0 C3.96 0 7.92 0 12 0 C11.01 0.495 11.01 0.495 10 1 C10 4.63 10 8.26 10 12 C9.34 12 8.68 12 8 12 C7.773125 11.195625 7.54625 10.39125 7.3125 9.5625 C6.879375 8.716875 6.44625 7.87125 6 7 C3.45224694 6.10613836 3.45224694 6.10613836 1 6 C1.33 5.01 1.66 4.02 2 3 C3.32 3 4.64 3 6 3 C6.33 2.34 6.66 1.68 7 1 C4.69 1 2.38 1 0 1 C0 0.67 0 0.34 0 0 Z " fill="#E8EBFA" transform="translate(157,176)"/>
<path d="M0 0 C-0.97583008 1.48168945 -0.97583008 1.48168945 -3 3 C-5.87082157 3.26163168 -8.51986493 3.34888634 -11.38671875 3.29296875 C-12.20372757 3.28872391 -13.02073639 3.28447906 -13.86250305 3.28010559 C-16.47117107 3.26331691 -19.07906562 3.22566519 -21.6875 3.1875 C-23.45636905 3.17245337 -25.22525021 3.15876492 -26.99414062 3.14648438 C-31.32972496 3.11341286 -35.66473136 3.0616299 -40 3 C-40 2.67 -40 2.34 -40 2 C-39.30551758 1.98018066 -38.61103516 1.96036133 -37.89550781 1.93994141 C-34.68002475 1.84335952 -31.46507723 1.73423252 -28.25 1.625 C-26.61224609 1.57859375 -26.61224609 1.57859375 -24.94140625 1.53125 C-18.29972689 1.29545073 -11.97265866 0.62000187 -5.45214844 -0.68212891 C-3 -1 -3 -1 0 0 Z " fill="#405EE4" transform="translate(299,168)"/>
<path d="M0 0 C0 2.64 0 5.28 0 8 C0.66 8.33 1.32 8.66 2 9 C2 9.66 2 10.32 2 11 C-0.31 11 -2.62 11 -5 11 C-5 9.68 -5 8.36 -5 7 C-4.34 6.67 -3.68 6.34 -3 6 C-2.34786708 3.97536745 -2.34786708 3.97536745 -2 2 C-2.78375 2.495 -3.5675 2.99 -4.375 3.5 C-7 5 -7 5 -9 5 C-8.6875 3.0625 -8.6875 3.0625 -8 1 C-5.07175348 0.02391783 -3.04386724 -0.08226668 0 0 Z " fill="#E5E9FA" transform="translate(78,180)"/>
<path d="M0 0 C1.21816406 0.03480469 1.21816406 0.03480469 2.4609375 0.0703125 C3.68683594 0.09738281 3.68683594 0.09738281 4.9375 0.125 C5.87722656 0.15980469 5.87722656 0.15980469 6.8359375 0.1953125 C5.8459375 0.8553125 4.8559375 1.5153125 3.8359375 2.1953125 C2.48342253 3.50918419 1.14648373 4.83957502 -0.1640625 6.1953125 C1.1559375 6.8553125 2.4759375 7.5153125 3.8359375 8.1953125 C3.1759375 8.1953125 2.5159375 8.1953125 1.8359375 8.1953125 C1.8359375 9.1853125 1.8359375 10.1753125 1.8359375 11.1953125 C1.1759375 11.1953125 0.5159375 11.1953125 -0.1640625 11.1953125 C-0.1640625 10.2053125 -0.1640625 9.2153125 -0.1640625 8.1953125 C-1.4840625 8.1953125 -2.8040625 8.1953125 -4.1640625 8.1953125 C-4.2890625 5.3203125 -4.2890625 5.3203125 -4.1640625 2.1953125 C-2.1640625 0.1953125 -2.1640625 0.1953125 0 0 Z " fill="#364CD9" transform="translate(103.1640625,176.8046875)"/>
<path d="M0 0 C4.875 0.875 4.875 0.875 6 2 C5.71269945 4.33944736 5.38063221 6.6739143 5 9 C3.35 9.33 1.7 9.66 0 10 C0 6.7 0 3.4 0 0 Z " fill="#3954E1" transform="translate(119,153)"/>
<path d="M0 0 C2.64 0 5.28 0 8 0 C8 3.63 8 7.26 8 11 C7.01 10.67 6.02 10.34 5 10 C4.67 7.69 4.34 5.38 4 3 C2.68 3.33 1.36 3.66 0 4 C0 2.68 0 1.36 0 0 Z " fill="#3B52D9" transform="translate(129,177)"/>
<path d="M0 0 C2.31 0 4.62 0 7 0 C7 0.99 7 1.98 7 3 C6.01 3.33 5.02 3.66 4 4 C3.67 6.31 3.34 8.62 3 11 C2.01 11 1.02 11 0 11 C0 7.37 0 3.74 0 0 Z " fill="#DADFF8" transform="translate(91,155)"/>
<path d="M0 0 C0 1.65 0 3.3 0 5 C-4.75 6.125 -4.75 6.125 -7 5 C-6.625 2.5625 -6.625 2.5625 -6 0 C-3.50907189 -1.24546405 -2.58919267 -0.7767578 0 0 Z " fill="#C4CCF4" transform="translate(192,160)"/>
<path d="M0 0 C1.98 0 3.96 0 6 0 C6 0.99 6 1.98 6 3 C5.01 3 4.02 3 3 3 C3 5.64 3 8.28 3 11 C2.01 11 1.02 11 0 11 C0 7.37 0 3.74 0 0 Z " fill="#E1E5F9" transform="translate(197,155)"/>
<path d="M0 0 C0.99 0 1.98 0 3 0 C3.33 0.99 3.66 1.98 4 3 C4.99 2.67 5.98 2.34 7 2 C8 3 8 3 8.09765625 4.84765625 C8.04882812 7.92382812 8.04882812 7.92382812 8 11 C7.34 10.67 6.68 10.34 6 10 C6 8.35 6 6.7 6 5 C3.525 6.485 3.525 6.485 1 8 C0 7 0 7 -0.0625 3.4375 C-0.041875 2.303125 -0.02125 1.16875 0 0 Z " fill="#E1E4F9" transform="translate(126,177)"/>
<path d="M0 0 C4.95 0 9.9 0 15 0 C14.67 1.32 14.34 2.64 14 4 C13.34 3.34 12.68 2.68 12 2 C7.66356399 1.68462284 5.67346771 1.55102153 2 4 C1.27034634 6.56282742 1.27034634 6.56282742 1 9 C0.67 9 0.34 9 0 9 C0 6.03 0 3.06 0 0 Z " fill="#364DDB" transform="translate(139,177)"/>
<path d="M0 0 C1.093125 0.226875 2.18625 0.45375 3.3125 0.6875 C3.3125 1.3475 3.3125 2.0075 3.3125 2.6875 C2.52875 2.935 1.745 3.1825 0.9375 3.4375 C-2.01067108 4.84139099 -2.5899777 5.69425737 -3.6875 8.6875 C-4.6775 6.7075 -5.6675 4.7275 -6.6875 2.6875 C-4.58035839 -0.41123767 -3.86755884 -0.32775922 0 0 Z " fill="#415BE1" transform="translate(153.6875,156.3125)"/>
<path d="M0 0 C2.64 0 5.28 0 8 0 C7.01 0.66 6.02 1.32 5 2 C3.64748503 3.31387169 2.31054623 4.64426252 1 6 C2.32 6.66 3.64 7.32 5 8 C2.525 9.485 2.525 9.485 0 11 C0 7.37 0 3.74 0 0 Z " fill="#384DD8" transform="translate(181,177)"/>
<path d="M0 0 C0 2.64 0 5.28 0 8 C-0.66 8 -1.32 8 -2 8 C-2.66 6.35 -3.32 4.7 -4 3 C-5.98 3.99 -5.98 3.99 -8 5 C-7.75 3.125 -7.75 3.125 -7 1 C-4.09342573 -1.03460199 -3.47133392 -1.15711131 0 0 Z " fill="#E5E8F9" transform="translate(177,180)"/>
<path d="M0 0 C0.99 0.33 1.98 0.66 3 1 C2.67 2.65 2.34 4.3 2 6 C3.32 6.66 4.64 7.32 6 8 C6 8.66 6 9.32 6 10 C3.625 10.1875 3.625 10.1875 1 10 C-1.56687367 6.1496895 -0.83288724 4.41430237 0 0 Z " fill="#D5DAF7" transform="translate(120,178)"/>
<path d="M0 0 C2.64 0 5.28 0 8 0 C8 3.63 8 7.26 8 11 C7.67 11 7.34 11 7 11 C6.67 8.69 6.34 6.38 6 4 C4.68 4 3.36 4 2 4 C1.34 4 0.68 4 0 4 C0 2.68 0 1.36 0 0 Z " fill="#5267DF" transform="translate(171,177)"/>
<path d="M0 0 C8.25 0 16.5 0 25 0 C25 0.33 25 0.66 25 1 C18.07 1 11.14 1 4 1 C4 1.66 4 2.32 4 3 C2.68 3 1.36 3 0 3 C0 2.01 0 1.02 0 0 Z " fill="#677EE9" transform="translate(762,115)"/>
<path d="M0 0 C0.66 0 1.32 0 2 0 C2 2.64 2 5.28 2 8 C0.35 7.67 -1.3 7.34 -3 7 C-2.25 2.25 -2.25 2.25 0 0 Z " fill="#334BDB" transform="translate(124,177)"/>
<path d="M0 0 C1.65 0 3.3 0 5 0 C4.01 0.33 3.02 0.66 2 1 C2 4.63 2 8.26 2 12 C1.34 12 0.68 12 0 12 C-0.66 10.68 -1.32 9.36 -2 8 C-1.34 8 -0.68 8 0 8 C0 5.36 0 2.72 0 0 Z " fill="#F8F9FD" transform="translate(87,176)"/>
<path d="M0 0 C0.66 0 1.32 0 2 0 C2.33 4.62 2.66 9.24 3 14 C2.01 14 1.02 14 0 14 C0 9.38 0 4.76 0 0 Z " fill="#FBFBFD" transform="translate(116,151)"/>
<path d="M0 0 C1.65 0.33 3.3 0.66 5 1 C5 2.32 5 3.64 5 5 C2 6 2 6 -0.1875 5.0625 C-0.785625 4.711875 -1.38375 4.36125 -2 4 C-1.34 2.68 -0.68 1.36 0 0 Z " fill="#ADB6ED" transform="translate(184,179)"/>
<path d="M0 0 C0.66 0.33 1.32 0.66 2 1 C2.99 1 3.98 1 5 1 C5 2.65 5 4.3 5 6 C3.35 6 1.7 6 0 6 C-0.38218767 4.34385343 -0.71395102 2.67542976 -1 1 C-0.67 0.67 -0.34 0.34 0 0 Z " fill="#BCC6F3" transform="translate(81,160)"/>
<path d="M0 0 C0.99 0.33 1.98 0.66 3 1 C3.04241723 3.33294775 3.04092937 5.66702567 3 8 C2 9 2 9 -0.5625 9.0625 C-1.366875 9.041875 -2.17125 9.02125 -3 9 C-2.01 8.67 -1.02 8.34 0 8 C0 5.36 0 2.72 0 0 Z " fill="#EEF1FB" transform="translate(136,156)"/>
<path d="M0 0 C2.31 0 4.62 0 7 0 C6.67 0.99 6.34 1.98 6 3 C4.68 3 3.36 3 2 3 C1.67 5.64 1.34 8.28 1 11 C0.67 11 0.34 11 0 11 C0 7.37 0 3.74 0 0 Z " fill="#344BD9" transform="translate(157,177)"/>
<path d="M0 0 C0.33 0.66 0.66 1.32 1 2 C2.98 2 4.96 2 7 2 C7 2.66 7 3.32 7 4 C6.195625 4.226875 5.39125 4.45375 4.5625 4.6875 C3.716875 5.120625 2.87125 5.55375 2 6 C1.10613836 8.54775306 1.10613836 8.54775306 1 11 C0.67 11 0.34 11 0 11 C0 7.37 0 3.74 0 0 Z " fill="#3E58E1" transform="translate(79,155)"/>
<path d="M0 0 C0.33 0 0.66 0 1 0 C1 1.65 1 3.3 1 5 C-2.13349732 6.04449911 -2.98968256 5.93423645 -6 5 C-5.67 4.01 -5.34 3.02 -5 2 C-3.68 2 -2.36 2 -1 2 C-0.67 1.34 -0.34 0.68 0 0 Z " fill="#D2D7F4" transform="translate(164,177)"/>
<path d="M0 0 C0 1.98 0 3.96 0 6 C-0.78375 5.649375 -1.5675 5.29875 -2.375 4.9375 C-3.24125 4.628125 -4.1075 4.31875 -5 4 C-5.99 4.495 -5.99 4.495 -7 5 C-5.22678182 1.07358831 -4.52021524 0 0 0 Z " fill="#9DA8EB" transform="translate(110,178)"/>
<path d="M0 0 C3.63 0 7.26 0 11 0 C10.67 0.99 10.34 1.98 10 3 C10 2.34 10 1.68 10 1 C9.16855469 1.32484375 9.16855469 1.32484375 8.3203125 1.65625 C7.23363281 2.07390625 7.23363281 2.07390625 6.125 2.5 C5.04605469 2.91765625 5.04605469 2.91765625 3.9453125 3.34375 C2 4 2 4 0 4 C0 2.68 0 1.36 0 0 Z " fill="#4359DC" transform="translate(71,177)"/>
<path d="M0 0 C1.65 0.33 3.3 0.66 5 1 C5 1.99 5 2.98 5 4 C4.01 4 3.02 4 2 4 C2 4.66 2 5.32 2 6 C1.01 5.67 0.02 5.34 -1 5 C-0.67 3.35 -0.34 1.7 0 0 Z " fill="#B2BCEF" transform="translate(152,160)"/>
<path d="M0 0 C0.99 0.33 1.98 0.66 3 1 C3 2.98 3 4.96 3 7 C1.68 6.67 0.36 6.34 -1 6 C-1.042721 4.33388095 -1.04063832 2.66617115 -1 1 C-0.67 0.67 -0.34 0.34 0 0 Z " fill="#435DE1" transform="translate(133,157)"/>
<path d="M0 0 C2.31 0 4.62 0 7 0 C6.67 0.99 6.34 1.98 6 3 C5.01 3 4.02 3 3 3 C3 6.3 3 9.6 3 13 C2.67 13 2.34 13 2 13 C2 9.04 2 5.08 2 1 C1.34 0.67 0.68 0.34 0 0 Z " fill="#C9D0F7" transform="translate(116,150)"/>
<path d="M0 0 C0.66 0.33 1.32 0.66 2 1 C0.33333333 2.66666667 -1.33333333 4.33333333 -3 6 C-3.556875 6.598125 -4.11375 7.19625 -4.6875 7.8125 C-6 9 -6 9 -8 9 C-6.4169423 4.7257442 -3.49431596 2.73468206 0 0 Z " fill="#3C5AE3" transform="translate(1067,114)"/>
<path d="M0 0 C0.66 0.33 1.32 0.66 2 1 C1.67 1.33 1.34 1.66 1 2 C2.65 2.33 4.3 2.66 6 3 C6 3.33 6 3.66 6 4 C4.56342755 4.33730842 3.12569907 4.66969591 1.6875 5 C0.48673828 5.2784375 0.48673828 5.2784375 -0.73828125 5.5625 C-3 6 -3 6 -6 6 C-4 4 -2 2 0 0 Z " fill="#4864E5" transform="translate(879,115)"/>
<path d="M0 0 C1.65 0 3.3 0 5 0 C5 1.65 5 3.3 5 5 C3.35 5 1.7 5 0 5 C0 3.35 0 1.7 0 0 Z " fill="#DCE3F9" transform="translate(157,95)"/>
<path d="M0 0 C0.99 0.33 1.98 0.66 3 1 C3 2.65 3 4.3 3 6 C1.68 6 0.36 6 -1 6 C-1.042721 4.33388095 -1.04063832 2.66617115 -1 1 C-0.67 0.67 -0.34 0.34 0 0 Z " fill="#3C56DE" transform="translate(178,157)"/>
<path d="M0 0 C0.2475 0.598125 0.495 1.19625 0.75 1.8125 C2.16370012 4.28647521 3.65055383 5.43370255 6 7 C3.625 7.625 3.625 7.625 1 8 C-1 6 -1 6 -1.1875 3.4375 C-1 1 -1 1 0 0 Z " fill="#F2F4FC" transform="translate(175,158)"/>
<path d="M0 0 C0.99 0 1.98 0 3 0 C2.8864371 1.64666203 2.75882619 3.29236082 2.625 4.9375 C2.52058594 6.31228516 2.52058594 6.31228516 2.4140625 7.71484375 C2.27742188 8.46894531 2.14078125 9.22304687 2 10 C1.01 10.495 1.01 10.495 0 11 C0 7.37 0 3.74 0 0 Z " fill="#3249D7" transform="translate(95,177)"/>
<path d="M0 0 C1.65 0 3.3 0 5 0 C4.34 0.66 3.68 1.32 3 2 C2.59952556 4.32275177 2.2602896 6.65739357 2 9 C1.34 9 0.68 9 0 9 C0 6.03 0 3.06 0 0 Z " fill="#FCFCFD" transform="translate(163,156)"/>
<path d="M0 0 C-0.99 0.495 -0.99 0.495 -2 1 C-2 1.66 -2 2.32 -2 3 C-6.29 2.67 -10.58 2.34 -15 2 C-15 1.67 -15 1.34 -15 1 C-9.9752761 0.37470103 -5.07471573 -0.13012092 0 0 Z " fill="#4B67E5" transform="translate(299,95)"/>
<path d="M0 0 C0 0.99 0 1.98 0 3 C-2.64 3.33 -5.28 3.66 -8 4 C-8 3.01 -8 2.02 -8 1 C-2.25 -1.125 -2.25 -1.125 0 0 Z " fill="#4E69E6" transform="translate(634,167)"/>
<path d="M0 0 C0.66 0.33 1.32 0.66 2 1 C2 3.31 2 5.62 2 8 C1.01 7.67 0.02 7.34 -1 7 C-0.67 4.69 -0.34 2.38 0 0 Z " fill="#2A41D6" transform="translate(135,180)"/>
<path d="M0 0 C4.62 0 9.24 0 14 0 C14 0.33 14 0.66 14 1 C10.37 1 6.74 1 3 1 C3 1.66 3 2.32 3 3 C2.01 3 1.02 3 0 3 C0 2.01 0 1.02 0 0 Z " fill="#637BE9" transform="translate(849,115)"/>
<path d="M0 0 C4.62 0 9.24 0 14 0 C14 0.33 14 0.66 14 1 C10.37 1 6.74 1 3 1 C3 1.66 3 2.32 3 3 C2.01 3 1.02 3 0 3 C0 2.01 0 1.02 0 0 Z " fill="#637BE9" transform="translate(458,115)"/>
<path d="M0 0 C4.62 0 9.24 0 14 0 C14 0.33 14 0.66 14 1 C10.37 1 6.74 1 3 1 C3 1.66 3 2.32 3 3 C2.01 3 1.02 3 0 3 C0 2.01 0 1.02 0 0 Z " fill="#647CE9" transform="translate(368,115)"/>
<path d="M0 0 C1.32 0 2.64 0 4 0 C4 1.65 4 3.3 4 5 C2.68 5 1.36 5 0 5 C0 3.35 0 1.7 0 0 Z " fill="#EEF1FB" transform="translate(152,95)"/>
<path d="M0 0 C1.65 0.99 3.3 1.98 5 3 C4 5 4 5 1 7 C0.34 5.02 -0.32 3.04 -1 1 C-0.67 0.67 -0.34 0.34 0 0 Z " fill="#E1E4F9" transform="translate(105,181)"/>
<path d="M0 0 C0.99 0 1.98 0 3 0 C3.33 1.98 3.66 3.96 4 6 C3.01 6.66 2.02 7.32 1 8 C0 7 0 7 -0.0625 3.4375 C-0.041875 2.303125 -0.02125 1.16875 0 0 Z " fill="#D1D7F5" transform="translate(126,177)"/>
<path d="M0 0 C0.99 0 1.98 0 3 0 C3 2.31 3 4.62 3 7 C2.01 6.67 1.02 6.34 0 6 C0 4.02 0 2.04 0 0 Z " fill="#4559DB" transform="translate(84,177)"/>
<path d="M0 0 C0.185625 0.9590625 0.185625 0.9590625 0.375 1.9375 C0.684375 2.9584375 0.684375 2.9584375 1 4 C1.66 4.33 2.32 4.66 3 5 C2.01 5.495 2.01 5.495 1 6 C-1.125 5.0625 -1.125 5.0625 -3 4 C-3 3.01 -3 2.02 -3 1 C-2.01 0.67 -1.02 0.34 0 0 Z " fill="#DBDFF8" transform="translate(83,179)"/>
<path d="M0 0 C1.98 0 3.96 0 6 0 C5.67 1.32 5.34 2.64 5 4 C3.68 4 2.36 4 1 4 C0.67 2.68 0.34 1.36 0 0 Z " fill="#A7B3F1" transform="translate(101,155)"/>
<path d="M0 0 C0.66 0.33 1.32 0.66 2 1 C-0.475 4.465 -0.475 4.465 -3 8 C-3.66 7.34 -4.32 6.68 -5 6 C-3.35 4.02 -1.7 2.04 0 0 Z " fill="#3B59E3" transform="translate(486,116)"/>
</svg>
